<?xml version="1.0" encoding="UTF-8"?>
<svg width="23px" height="33px" viewBox="0 0 23 33" version="1.1" xmlns="http://www.w3.org/2000/svg" xmlns:xlink="http://www.w3.org/1999/xlink">
    <!-- Generator: Sketch 57.1 (83088) - https://sketch.com -->
    <title>Badezimmer_Petrol_RGB</title>
    <desc>Created with Sketch.</desc>
    <g id="Page-1" stroke="none" stroke-width="1" fill="none" fill-rule="evenodd" stroke-linecap="round">
        <g id="CH_Hausunterseite" transform="translate(-717.000000, -885.000000)" stroke="#163233">
            <g id="Badezimmer_Petrol_RGB" transform="translate(717.000000, 886.000000)">
                <path d="M10.149,9.109 L2.6,9.109 C1.495,9.109 0.6,10.004 0.6,11.109 C0.6,12.213 1.495,13.109 2.6,13.109 L13.641,13.109 C14.746,13.109 15.641,12.213 15.641,11.109 C15.641,10.004 14.746,9.109 13.641,9.109 L11.951,9.109 M1.802,9.24 C2.438,6.33 5.03,4.151 8.132,4.151 C11.199,4.151 13.769,6.283 14.439,9.147 M8.121,15.959 L8.121,18.834 M8.121,22.242 L8.121,25.117 M8.121,28.525 L8.121,31.4 M12.93,15.959 L13.33,18.806 M13.718,21.562 L13.979,23.418 M14.401,26.422 L14.801,29.269 M2.656,20.621 L2.256,23.468 M3.311,15.959 L3.05,17.815 M1.841,26.422 L1.441,29.269" id="Stroke-1" stroke-width="1.2"></path>
                <path d="M7.664,3.752 C7.664,2.005 9.093,0.576 10.84,0.576 L18.343,0.576 C20.09,0.576 21.519,2.005 21.519,3.752 L21.519,28.148" id="Stroke-3" stroke-width="1.5"></path>
            </g>
        </g>
    </g>
</svg>