<?xml version="1.0" encoding="UTF-8"?>
<svg width="14px" height="16px" viewBox="0 0 14 16" version="1.1" xmlns="http://www.w3.org/2000/svg" xmlns:xlink="http://www.w3.org/1999/xlink">
    <!-- Generator: Sketch 56.3 (81716) - https://sketch.com -->
    <title>Shape Copy 4</title>
    <desc>Created with Sketch.</desc>
    <g id="Page-1" stroke="none" stroke-width="1" fill="none" fill-rule="evenodd">
        <g id="CH_Startseite-" transform="translate(-698.000000, -890.000000)" fill="#0A3A3D">
            <g id="Suchleiste-Alternative-2" transform="translate(0.000000, 853.000000)">
                <path d="M702.666667,44.2 L701.111111,44.2 L701.111111,45.8 L702.666667,45.8 L702.666667,44.2 L702.666667,44.2 Z M705.777778,44.2 L704.222222,44.2 L704.222222,45.8 L705.777778,45.8 L705.777778,44.2 L705.777778,44.2 Z M708.888889,44.2 L707.333333,44.2 L707.333333,45.8 L708.888889,45.8 L708.888889,44.2 L708.888889,44.2 Z M710.444444,38.6 L709.666667,38.6 L709.666667,37 L708.111111,37 L708.111111,38.6 L701.888889,38.6 L701.888889,37 L700.333333,37 L700.333333,38.6 L699.555556,38.6 C698.692222,38.6 698.007778,39.32 698.007778,40.2 L698,51.4 C698,52.28 698.692222,53 699.555556,53 L710.444444,53 C711.3,53 712,52.28 712,51.4 L712,40.2 C712,39.32 711.3,38.6 710.444444,38.6 L710.444444,38.6 Z M710.444444,51.4 L699.555556,51.4 L699.555556,42.6 L710.444444,42.6 L710.444444,51.4 L710.444444,51.4 Z" id="Shape-Copy-4"></path>
            </g>
        </g>
    </g>
</svg>