<?xml version="1.0" encoding="UTF-8"?>
<svg width="16px" height="16px" viewBox="0 0 16 16" version="1.1" xmlns="http://www.w3.org/2000/svg" xmlns:xlink="http://www.w3.org/1999/xlink">
    <!-- Generator: Sketch 58 (84663) - https://sketch.com -->
    <title>Shape Copy 11</title>
    <desc>Created with Sketch.</desc>
    <g id="Page-1" stroke="none" stroke-width="1" fill="none" fill-rule="evenodd">
        <g id="CH_Startseite_Anpassungen_29.August" transform="translate(-626.000000, -2028.000000)" fill="#0A3A3D">
            <path d="M634.8,2033.6 L633.2,2033.6 L633.2,2032 L634.8,2032 L634.8,2033.6 Z M634.8,2040 L633.2,2040 L633.2,2035.2 L634.8,2035.2 L634.8,2040 Z M633.992,2028 C629.576,2028 626,2031.584 626,2036 C626,2040.416 629.576,2044 633.992,2044 C638.416,2044 642,2040.416 642,2036 C642,2031.584 638.416,2028 633.992,2028 L633.992,2028 Z M634,2029.6 C637.536,2029.6 640.4,2032.464 640.4,2036 C640.4,2039.536 637.536,2042.4 634,2042.4 C630.464,2042.4 627.6,2039.536 627.6,2036 C627.6,2032.464 630.464,2029.6 634,2029.6 L634,2029.6 Z" id="Shape-Copy-11"></path>
        </g>
    </g>
</svg>