<?xml version="1.0" encoding="UTF-8"?>
<svg width="16px" height="16px" viewBox="0 0 16 16" version="1.1" xmlns="http://www.w3.org/2000/svg" xmlns:xlink="http://www.w3.org/1999/xlink">
    <!-- Generator: Sketch 57.1 (83088) - https://sketch.com -->
    <title>merkliste-white</title>
    <desc>Created with Sketch.</desc>
    <g id="Page-1" stroke="none" stroke-width="1" fill="none" fill-rule="evenodd">
        <g id="CH_Hausunterseite" transform="translate(-984.000000, -901.000000)" fill="#FFFFFF">
            <path d="M999.528,908.664 L992.328,901.464 C992.04,901.176 991.64,901 991.2,901 L985.6,901 C984.72,901 984,901.72 984,902.6 L984,908.2 C984,908.64 984.176,909.04 984.472,909.336 L991.672,916.536 C991.96,916.824 992.36,917 992.8,917 C993.24,917 993.64,916.824 993.928,916.528 L999.528,910.928 C999.824,910.64 1000,910.24 1000,909.8 C1000,909.36 999.816,908.952 999.528,908.664 L999.528,908.664 Z M987,905 C986.446667,905 986,904.553333 986,904 C986,903.446667 986.446667,903 987,903 C987.553333,903 988,903.446667 988,904 C988,904.553333 987.553333,905 987,905 L987,905 Z M996.416,911.5 L993,915 L989.584,911.5 C989.224,911.122951 989,910.614754 989,910.04918 C989,908.918033 989.896,908 991,908 C991.552,908 992.056,908.229508 992.416,908.606557 L993,909.196721 L993.584,908.598361 C993.944,908.229508 994.448,908 995,908 C996.104,908 997,908.918033 997,910.04918 C997,910.614754 996.776,911.131148 996.416,911.5 L996.416,911.5 Z" id="merkliste-white"></path>
        </g>
    </g>
</svg>