<?xml version="1.0" encoding="UTF-8"?>
<svg width="42px" height="31px" viewBox="0 0 42 31" version="1.1" xmlns="http://www.w3.org/2000/svg" xmlns:xlink="http://www.w3.org/1999/xlink">
    <!-- Generator: Sketch 57.1 (83088) - https://sketch.com -->
    <title>Personen_Petrol_RGB</title>
    <desc>Created with Sketch.</desc>
    <defs>
        <polygon id="path-1" points="0 0.34 41.1146666 0.34 41.1146666 30.94 0 30.94"></polygon>
    </defs>
    <g id="Page-1" stroke="none" stroke-width="1" fill="none" fill-rule="evenodd">
        <g id="CH_Hausunterseite" transform="translate(-445.000000, -888.000000)">
            <g id="Personen_Petrol_RGB" transform="translate(445.000000, 888.000000)">
                <mask id="mask-2" fill="white">
                    <use xlink:href="#path-1"></use>
                </mask>
                <g id="Clip-2"></g>
                <path d="M39.901,28.423 C39.853,28.423 39.807,28.4 39.776,28.359 C38.492,26.692 36.755,25.467 34.753,24.816 C34.527,24.743 34.376,24.543 34.376,24.32 L34.376,21.319 C34.376,21.178 34.433,21.043 34.532,20.946 C34.629,20.854 34.762,20.8 34.896,20.8 L35.034,20.8 C35.644,20.8 37.758,20.732 39.341,19.856 L39.665,19.676 L39.39,19.427 C38.532,18.653 37.574,17.067 37.885,13.909 C38.217,10.577 37.745,7.932 36.588,6.653 C36.015,6.017 35.286,5.707 34.36,5.707 C34.23,5.707 34.094,5.713 33.958,5.726 C33.955,5.726 33.952,5.726 33.949,5.726 C33.746,5.726 33.609,5.661 33.516,5.545 C33.477,5.499 32.65,4.546 30.982,4.546 C30.382,4.546 29.73,4.676 29.043,4.934 C27.848,5.385 25.134,6.414 25.29,12.706 C25.364,15.934 24.847,18.147 23.755,19.284 L23.35,19.684 L23.643,19.858 C24.391,20.301 25.753,20.83 27.997,20.83 L28.147,20.829 C28.29,20.829 28.415,20.883 28.516,20.981 C28.613,21.074 28.668,21.208 28.668,21.348 L28.668,24.268 C28.668,24.491 28.515,24.69 28.288,24.764 C27.595,24.989 26.915,25.299 26.266,25.687 C26.245,25.69 26.225,25.691 26.207,25.691 C26.1,25.691 26.04,25.642 26.029,25.567 C25.996,25.329 25.951,25.096 25.892,24.867 C25.875,24.8 25.89,24.715 25.963,24.674 C26.46,24.393 26.965,24.154 27.465,23.963 L27.636,23.899 L27.636,21.866 L27.382,21.855 C25.776,21.788 24.41,21.457 23.323,20.871 C22.343,20.343 21.977,19.802 21.962,19.779 C21.861,19.631 21.783,19.396 21.892,19.215 C21.993,19.044 22.127,18.958 22.291,18.958 L22.419,18.951 C22.609,18.9 22.983,18.723 23.355,18.106 C23.803,17.361 24.323,15.823 24.252,12.728 C24.184,9.757 24.734,7.476 25.888,5.945 C26.87,4.64 28.027,4.206 28.648,3.974 C29.471,3.657 30.247,3.503 30.993,3.503 C32.562,3.503 33.58,4.185 34.047,4.592 L34.122,4.658 L34.371,4.658 C35.586,4.658 36.595,5.091 37.367,5.946 C38.097,6.759 38.594,7.927 38.847,9.417 C39.071,10.746 39.097,12.288 38.926,14.002 C38.499,18.354 40.719,19.056 40.742,19.062 C40.914,19.11 41.053,19.25 41.098,19.424 C41.144,19.6 41.093,19.791 40.967,19.921 C39.527,21.395 37.033,21.74 35.675,21.815 L35.425,21.828 L35.425,23.94 L35.596,24.004 C37.765,24.822 39.607,26.255 40.924,28.148 C40.983,28.233 40.95,28.314 40.938,28.336 C40.921,28.368 40.88,28.423 40.793,28.423 L39.901,28.423" id="Fill-1" fill="#163233" mask="url(#mask-2)"></path>
                <path d="M12.867,1.29 C12.008,1.29 11.173,1.5 10.384,1.913 C10.322,1.946 10.255,1.964 10.184,1.967 C9.871,1.982 9.565,2.031 9.276,2.115 C6.734,2.85 5.296,6.043 6.072,9.234 L6.186,9.705 L6.521,9.354 C7.357,8.476 7.958,7.4 8.26,6.241 C8.33,5.971 8.565,5.777 8.843,5.759 C8.844,5.759 8.845,5.759 8.847,5.759 C9.149,5.759 9.38,5.917 9.478,6.16 C9.59,6.439 9.778,6.683 10.02,6.865 C10.306,7.078 10.646,7.191 11.003,7.191 L16.047,7.191 C16.847,7.191 17.599,7.506 18.163,8.078 L18.588,8.51 L18.616,7.905 C18.62,7.801 18.624,7.698 18.624,7.594 C18.624,4.118 16.041,1.29 12.867,1.29 Z M8.82,7.546 C8.356,8.656 7.635,9.666 6.736,10.467 L6.633,10.559 L6.649,10.695 C6.854,12.481 7.512,14.129 8.501,15.337 C9.538,16.605 10.868,17.303 12.246,17.303 C15.371,17.303 17.914,13.785 17.914,9.462 L17.914,9.405 L17.892,9.338 C17.566,8.611 16.842,8.14 16.047,8.14 L11.003,8.14 C10.439,8.14 9.903,7.963 9.452,7.627 C9.38,7.572 9.31,7.514 9.244,7.453 L8.966,7.198 L8.82,7.546 Z M10.145,18.142 C9.893,19.462 9.164,20.646 8.093,21.474 C8.049,21.509 7.721,21.743 7.721,21.743 L7.913,21.962 C9.059,23.278 10.717,24.033 12.463,24.033 C14.103,24.033 15.697,23.345 16.836,22.145 L17.059,21.91 L16.784,21.738 C16.654,21.657 16.522,21.569 16.396,21.474 C15.327,20.648 14.597,19.465 14.344,18.147 L14.286,17.842 L13.995,17.947 C13.429,18.15 12.841,18.253 12.246,18.253 C11.653,18.253 11.064,18.149 10.496,17.943 L10.204,17.837 L10.145,18.142 Z M23.706,31 C23.614,31 23.539,30.925 23.539,30.833 L23.539,26.492 C23.539,24.361 21.805,22.628 19.674,22.628 C19.667,22.628 18.972,22.624 18.156,22.381 L17.988,22.331 L17.877,22.466 C16.531,24.095 14.558,25.029 12.463,25.029 C10.314,25.029 8.309,24.055 6.963,22.357 L6.842,22.205 L6.66,22.274 C5.8,22.602 4.822,22.628 4.812,22.628 C2.684,22.628 0.95,24.361 0.95,26.492 L0.95,30.833 C0.95,30.925 0.875,31 0.783,31 L0.167,31 C0.075,31 0,30.925 0,30.833 L0,26.492 C0,23.883 2.042,21.77 4.65,21.681 C5.074,21.681 8.711,21.562 9.276,17.502 L9.298,17.341 L9.165,17.248 C7.33,15.969 6.077,13.683 5.726,10.975 L5.714,10.882 L5.646,10.817 C5.597,10.771 5.559,10.716 5.534,10.656 C5.39,10.302 5.267,9.93 5.17,9.552 C4.715,7.766 4.854,5.92 5.561,4.353 C6.283,2.756 7.509,1.636 9.011,1.202 C9.325,1.111 9.653,1.053 9.985,1.028 L10.036,1.024 L10.082,1.001 C10.966,0.562 11.903,0.339 12.867,0.339 C16.565,0.339 19.574,3.594 19.574,7.594 C19.574,8.639 19.373,9.647 18.977,10.591 C18.95,10.655 18.91,10.712 18.857,10.76 L18.785,10.825 L18.772,10.922 C18.55,12.706 17.927,14.332 16.972,15.625 C16.486,16.282 15.932,16.83 15.325,17.254 L15.192,17.346 L15.214,17.507 C15.777,21.564 19.418,21.681 19.832,21.681 C22.447,21.77 24.49,23.883 24.49,26.492 L24.49,30.833 C24.49,30.925 24.414,31 24.322,31 L23.706,31 L23.706,31 Z" id="Fill-3" fill="#163233" mask="url(#mask-2)"></path>
            </g>
        </g>
    </g>
</svg>