<?xml version="1.0" encoding="UTF-8"?>
<svg width="17px" height="17px" viewBox="0 0 17 17" version="1.1" xmlns="http://www.w3.org/2000/svg" xmlns:xlink="http://www.w3.org/1999/xlink">
    <!-- Generator: Sketch 56.3 (81716) - https://sketch.com -->
    <title>Suche Icon</title>
    <desc>Created with Sketch.</desc>
    <g id="Page-1" stroke="none" stroke-width="1" fill="none" fill-rule="evenodd">
        <g id="CH_Startseite-" transform="translate(-1294.000000, -889.000000)" fill="#FFFFFF">
            <g id="Suchleiste-Alternative-2" transform="translate(0.000000, 853.000000)">
                <path d="M1306.1498,46.6918239 L1305.38193,46.6918239 L1305.10978,46.4293882 C1306.06232,45.3213265 1306.63579,43.8827902 1306.63579,42.3178959 C1306.63579,38.8284734 1303.80732,36 1300.3179,36 C1296.82847,36 1294,38.8284734 1294,42.3178959 C1294,45.8073185 1296.82847,48.6357919 1300.3179,48.6357919 C1301.88279,48.6357919 1303.32133,48.0623213 1304.42939,47.109777 L1304.69182,47.3819325 L1304.69182,48.1497999 L1309.55174,53 L1311,51.5517439 L1306.1498,46.6918239 L1306.1498,46.6918239 Z M1300.3179,46.6918239 C1297.89766,46.6918239 1295.94397,44.7381361 1295.94397,42.3178959 C1295.94397,39.8976558 1297.89766,37.943968 1300.3179,37.943968 C1302.73814,37.943968 1304.69182,39.8976558 1304.69182,42.3178959 C1304.69182,44.7381361 1302.73814,46.6918239 1300.3179,46.6918239 L1300.3179,46.6918239 Z" id="Suche-Icon"></path>
            </g>
        </g>
    </g>
</svg>