<?xml version="1.0" encoding="UTF-8"?>
<svg width="56px" height="40px" viewBox="0 0 56 40" version="1.1" xmlns="http://www.w3.org/2000/svg" xmlns:xlink="http://www.w3.org/1999/xlink">
    <!-- Generator: Sketch 59.1 (86144) - https://sketch.com -->
    <title>Group 5</title>
    <desc>Created with Sketch.</desc>
    <defs>
        <polygon id="path-1" points="0.955353643 0.7541 4.54817096 0.7541 4.54817096 13 0.955353643 13"></polygon>
        <polygon id="path-3" points="0.477753643 0.7541 4.06984297 0.7541 4.06984297 13 0.477753643 13"></polygon>
        <polygon id="path-5" points="0.000253642811 0.7541 3.59309346 0.7541 3.59309346 13 0.000253642811 13"></polygon>
    </defs>
    <g id="Page-1" stroke="none" stroke-width="1" fill="none" fill-rule="evenodd">
        <g id="CH_Ergebnissanzeige_Karte" transform="translate(-249.000000, -708.000000)">
            <g id="Group-4" transform="translate(241.000000, 700.000000)">
                <g id="Group" transform="translate(8.000000, 8.000000)">
                    <g id="Group-5">
                        <rect id="Rectangle-Copy-5" fill="#5EA9B5" x="0" y="0" width="56" height="40"></rect>
                        <g id="Group-24" transform="translate(13.000000, 4.000000)">
                            <path d="M29.388,14.679 L27.814,14.679 C27.751,14.679 27.701,14.628 27.701,14.566 L27.701,6.972 C27.701,6.943 27.689,6.914 27.667,6.892 L23.354,2.579 C23.31,2.535 23.238,2.535 23.194,2.579 L18.881,6.892 C18.86,6.913 18.848,6.942 18.848,6.972 L18.848,14.566 C18.848,14.628 18.797,14.679 18.735,14.679 L17.16,14.679 C17.098,14.679 17.047,14.628 17.047,14.566 L17.047,6.227 C17.047,6.197 17.059,6.168 17.08,6.147 L23.194,0.033 C23.238,-0.011 23.31,-0.011 23.354,0.033 L29.468,6.146 C29.49,6.168 29.501,6.197 29.501,6.226 L29.501,14.566 C29.501,14.628 29.45,14.679 29.388,14.679" id="Fill-1" fill="#F5F1E5"></path>
                            <path d="M29.388,22.2288 L17.16,22.2288 C17.098,22.2288 17.047,22.1788 17.047,22.1158 L17.047,20.5428 C17.047,20.4798 17.098,20.4288 17.16,20.4288 L29.388,20.4288 C29.45,20.4288 29.501,20.4798 29.501,20.5428 L29.501,22.1158 C29.501,22.1788 29.45,22.2288 29.388,22.2288" id="Fill-3" fill="#F5F1E5"></path>
                            <path d="M29.388,26.305 L17.16,26.305 C17.098,26.305 17.047,26.254 17.047,26.192 L17.047,24.618 C17.047,24.556 17.098,24.505 17.16,24.505 L29.388,24.505 C29.45,24.505 29.501,24.556 29.501,24.618 L29.501,26.192 C29.501,26.254 29.45,26.305 29.388,26.305" id="Fill-5" fill="#F5F1E5"></path>
                            <path d="M29.388,30.3806 L17.16,30.3806 C17.098,30.3806 17.047,30.3296 17.047,30.2676 L17.047,28.6946 C17.047,28.6316 17.098,28.5816 17.16,28.5816 L29.388,28.5816 C29.45,28.5816 29.501,28.6316 29.501,28.6946 L29.501,30.2676 C29.501,30.3296 29.45,30.3806 29.388,30.3806" id="Fill-7" fill="#F5F1E5"></path>
                            <g id="Group-11" transform="translate(8.000000, 18.528000)">
                                <mask id="mask-2" fill="white">
                                    <use xlink:href="#path-1"></use>
                                </mask>
                                <g id="Clip-10"></g>
                                <path d="M3.5365,13.0001 C3.6405,13.0001 3.7015,12.8771 3.6395,12.7901 C3.1655,12.1351 2.7665,11.4041 2.6835,10.1241 C2.5825,8.5611 3.0525,7.7711 3.5505,6.9361 C4.0905,6.0271 4.6495,5.0871 4.5325,3.2771 C4.4615,2.1871 4.1865,1.4331 3.8375,0.8191 C3.8145,0.7781 3.7715,0.7541 3.7265,0.7541 L2.1735,0.7541 C2.0725,0.7541 2.0125,0.8711 2.0675,0.9581 C2.4475,1.5451 2.7485,2.2361 2.8185,3.3281 C2.9205,4.8911 2.4505,5.6801 1.9535,6.5161 C1.4125,7.4251 0.8525,8.3651 0.9715,10.1751 C1.0545,11.4541 1.4175,12.2711 1.8555,12.9421 C1.8795,12.9791 1.9195,13.0001 1.9615,13.0001 L3.5365,13.0001 Z" id="Fill-9" fill="#F5F1E5" mask="url(#mask-2)"></path>
                            </g>
                            <g id="Group-14" transform="translate(4.000000, 18.528000)">
                                <mask id="mask-4" fill="white">
                                    <use xlink:href="#path-3"></use>
                                </mask>
                                <g id="Clip-13"></g>
                                <path d="M3.0589,13.0001 C3.1629,13.0001 3.2229,12.8771 3.1609,12.7901 C2.6879,12.1351 2.2889,11.4041 2.2059,10.1241 C2.1049,8.5611 2.5749,7.7711 3.0729,6.9361 C3.6139,6.0271 4.1719,5.0871 4.0539,3.2771 C3.9839,2.1871 3.7089,1.4331 3.3599,0.8191 C3.3359,0.7781 3.2939,0.7541 3.2489,0.7541 L1.6969,0.7541 C1.5949,0.7541 1.5339,0.8711 1.5899,0.9581 C1.9709,1.5451 2.2709,2.2361 2.3409,3.3281 C2.4429,4.8911 1.9729,5.6801 1.4759,6.5161 C0.9349,7.4251 0.3749,8.3651 0.4939,10.1751 C0.5769,11.4541 0.9399,12.2711 1.3769,12.9421 C1.4019,12.9791 1.4419,13.0001 1.4839,13.0001 L3.0589,13.0001 Z" id="Fill-12" fill="#F5F1E5" mask="url(#mask-4)"></path>
                            </g>
                            <g id="Group-17" transform="translate(0.000000, 18.528000)">
                                <mask id="mask-6" fill="white">
                                    <use xlink:href="#path-5"></use>
                                </mask>
                                <g id="Clip-16"></g>
                                <path d="M2.5814,13.0001 C2.6854,13.0001 2.7464,12.8771 2.6844,12.7901 C2.2104,12.1351 1.8124,11.4041 1.7284,10.1241 C1.6274,8.5611 2.0974,7.7711 2.5954,6.9361 C3.1364,6.0271 3.6944,5.0871 3.5774,3.2771 C3.5064,2.1871 3.2324,1.4331 2.8824,0.8191 C2.8594,0.7781 2.8174,0.7541 2.7714,0.7541 L1.2194,0.7541 C1.1174,0.7541 1.0574,0.8711 1.1134,0.9581 C1.4934,1.5451 1.7934,2.2361 1.8634,3.3281 C1.9664,4.8911 1.4954,5.6801 0.9984,6.5161 C0.4574,7.4251 -0.1026,8.3651 0.0164,10.1751 C0.0994,11.4541 0.4634,12.2711 0.9004,12.9421 C0.9244,12.9791 0.9644,13.0001 1.0064,13.0001 L2.5814,13.0001 Z" id="Fill-15" fill="#F5F1E5" mask="url(#mask-6)"></path>
                            </g>
                            <path d="M12.3968,3.1429 C12.3968,3.0389 12.2738,2.9779 12.1868,3.0399 C11.5318,3.5139 10.8008,3.9119 9.5208,3.9959 C7.9588,4.0969 7.1678,3.6269 6.3328,3.1289 C5.4228,2.5889 4.4838,2.0299 2.6738,2.1469 C1.5838,2.2179 0.8298,2.4919 0.2148,2.8419 C0.1748,2.8649 0.1508,2.9069 0.1508,2.9529 L0.1508,4.5059 C0.1508,4.6069 0.2678,4.6679 0.3548,4.6109 C0.9418,4.2309 1.6328,3.9309 2.7248,3.8599 C4.2878,3.7589 5.0768,4.2279 5.9138,4.7259 C6.8218,5.2669 7.7608,5.8259 9.5718,5.7079 C10.8518,5.6249 11.6678,5.2619 12.3388,4.8239 C12.3758,4.7999 12.3968,4.7609 12.3968,4.7179 L12.3968,3.1429 Z" id="Fill-18" fill="#F5F1E5"></path>
                            <path d="M12.3968,7.6204 C12.3968,7.5164 12.2738,7.4554 12.1868,7.5184 C11.5318,7.9914 10.8008,8.3894 9.5208,8.4734 C7.9588,8.5744 7.1678,8.1044 6.3328,7.6064 C5.4228,7.0664 4.4838,6.5064 2.6738,6.6244 C1.5838,6.6954 0.8298,6.9694 0.2148,7.3194 C0.1748,7.3424 0.1508,7.3844 0.1508,7.4294 L0.1508,8.9834 C0.1508,9.0844 0.2678,9.1454 0.3548,9.0884 C0.9418,8.7084 1.6328,8.4084 2.7248,8.3374 C4.2878,8.2364 5.0768,8.7064 5.9138,9.2034 C6.8218,9.7444 7.7608,10.3034 9.5718,10.1854 C10.8518,10.1024 11.6678,9.7394 12.3388,9.3014 C12.3758,9.2774 12.3968,9.2374 12.3968,9.1954 L12.3968,7.6204 Z" id="Fill-20" fill="#F5F1E5"></path>
                            <path d="M12.3968,12.0974 C12.3968,11.9934 12.2738,11.9324 12.1868,11.9954 C11.5318,12.4684 10.8008,12.8674 9.5208,12.9504 C7.9588,13.0514 7.1678,12.5814 6.3328,12.0844 C5.4228,11.5434 4.4838,10.9844 2.6738,11.1014 C1.5838,11.1724 0.8298,11.4474 0.2148,11.7964 C0.1748,11.8194 0.1508,11.8624 0.1508,11.9074 L0.1508,13.4604 C0.1508,13.5614 0.2678,13.6224 0.3548,13.5654 C0.9418,13.1854 1.6328,12.8864 2.7248,12.8154 C4.2878,12.7134 5.0768,13.1834 5.9138,13.6804 C6.8218,14.2224 7.7608,14.7814 9.5718,14.6634 C10.8518,14.5794 11.6678,14.2164 12.3388,13.7784 C12.3758,13.7554 12.3968,13.7154 12.3968,13.6724 L12.3968,12.0974 Z" id="Fill-22" fill="#F5F1E5"></path>
                        </g>
                    </g>
                </g>
            </g>
        </g>
    </g>
</svg>