<?xml version="1.0" encoding="UTF-8"?>
<svg width="9px" height="9px" viewBox="0 0 9 9" version="1.1" xmlns="http://www.w3.org/2000/svg" xmlns:xlink="http://www.w3.org/1999/xlink">
    <!-- Generator: Sketch 56.3 (81716) - https://sketch.com -->
    <title>Suche Icon</title>
    <desc>Created with Sketch.</desc>
    <g id="Page-1" stroke="none" stroke-width="1" fill="none" fill-rule="evenodd">
        <g id="CH_Startseite-" transform="translate(-1266.000000, -6.000000)" fill="#5EA9B5">
            <g id="Top-Bar">
                <g id="Suche" transform="translate(1266.000000, 5.000000)">
                    <path d="M6.432247,6.66037736 L6.02572899,6.66037736 L5.88164666,6.52144082 C6.38593482,5.9348199 6.68953688,5.17324185 6.68953688,4.34476844 C6.68953688,2.4974271 5.19210978,1 3.34476844,1 C1.4974271,1 0,2.4974271 0,4.34476844 C0,6.19210978 1.4974271,7.68953688 3.34476844,7.68953688 C4.17324185,7.68953688 4.9348199,7.38593482 5.52144082,6.88164666 L5.66037736,7.02572899 L5.66037736,7.432247 L8.23327616,10 L9,9.23327616 L6.432247,6.66037736 L6.432247,6.66037736 Z M3.34476844,6.66037736 C2.06346484,6.66037736 1.02915952,5.62607204 1.02915952,4.34476844 C1.02915952,3.06346484 2.06346484,2.02915952 3.34476844,2.02915952 C4.62607204,2.02915952 5.66037736,3.06346484 5.66037736,4.34476844 C5.66037736,5.62607204 4.62607204,6.66037736 3.34476844,6.66037736 L3.34476844,6.66037736 Z" id="Suche-Icon"></path>
                </g>
            </g>
        </g>
    </g>
</svg>