<?xml version="1.0" encoding="UTF-8"?>
<svg width="12px" height="7px" viewBox="0 0 12 7" version="1.1" xmlns="http://www.w3.org/2000/svg" xmlns:xlink="http://www.w3.org/1999/xlink">
    <!-- Generator: Sketch 56.3 (81716) - https://sketch.com -->
    <title>Vermieter Icon</title>
    <desc>Created with Sketch.</desc>
    <g id="Page-1" stroke="none" stroke-width="1" fill="none" fill-rule="evenodd">
        <g id="CH_Startseite-" transform="translate(-957.000000, -8.000000)" fill="#5EA9B5">
            <g id="Top-Bar">
                <g id="Vermieter-werden" transform="translate(957.000000, 5.000000)">
                    <path d="M10.9090909,5.5 C10.3090909,5.5 9.81818182,5.95 9.81818182,6.5 L9.81818182,8 L2.18181818,8 L2.18181818,6.5 C2.18181818,5.95 1.69090909,5.5 1.09090909,5.5 C0.490909091,5.5 0,5.95 0,6.5 L0,9 C0,9.55 0.490909091,10 1.09090909,10 L10.9090909,10 C11.5090909,10 12,9.55 12,9 L12,6.5 C12,5.95 11.5090909,5.5 10.9090909,5.5 L10.9090909,5.5 Z M9.27272727,3 L2.72727273,3 C2.12727273,3 1.63636364,3.45 1.63636364,4 L1.63636364,5.075 C2.26909091,5.28 2.72727273,5.83 2.72727273,6.485 L2.72727273,7.5 L9.27272727,7.5 L9.27272727,6.485 C9.27272727,5.835 9.73090909,5.285 10.3636364,5.075 L10.3636364,4 C10.3636364,3.45 9.87272727,3 9.27272727,3 L9.27272727,3 Z" id="Vermieter-Icon"></path>
                </g>
            </g>
        </g>
    </g>
</svg>