<?xml version="1.0" encoding="UTF-8"?>
<svg width="41px" height="35px" viewBox="0 0 41 35" version="1.1" xmlns="http://www.w3.org/2000/svg" xmlns:xlink="http://www.w3.org/1999/xlink">
    <!-- Generator: Sketch 57.1 (83088) - https://sketch.com -->
    <title>Wohnflaeche_Petrol_RGB</title>
    <desc>Created with Sketch.</desc>
    <defs>
        <polygon id="path-1" points="0 0.8545 38.85025 0.8545 38.85025 34.045 0 34.045"></polygon>
        <polygon id="path-3" points="0.168965631 0.621965631 20.547 0.621965631 20.547 20.94 0.168965631 20.94"></polygon>
    </defs>
    <g id="Page-1" stroke="none" stroke-width="1" fill="none" fill-rule="evenodd">
        <g id="CH_Hausunterseite" transform="translate(-320.000000, -884.000000)">
            <g id="Wohnflaeche_Petrol_RGB" transform="translate(320.000000, 884.000000)">
                <g id="Group-5">
                    <mask id="mask-2" fill="white">
                        <use xlink:href="#path-1"></use>
                    </mask>
                    <g id="Clip-2"></g>
                    <path d="M37.447,12.639 L30.259,19.827 L19.877,9.445 L27.065,2.257 L37.447,12.639 Z M18.542,9.719 C18.569,9.768 18.602,9.815 18.644,9.856 L23.11,14.322 L12.081,25.349 L3.204,16.473 L14.25,5.427 L18.542,9.719 Z M29.437,20.649 L22.386,27.7 L16.881,22.194 L23.931,15.143 L29.437,20.649 Z M21.564,28.522 L18.409,31.677 L12.903,26.171 L16.059,23.017 L21.564,28.522 Z M26.654,1.024 L19.073,8.606 L14.683,4.216 C14.454,3.987 14.081,3.987 13.851,4.216 L1.994,16.074 C1.764,16.304 1.764,16.676 1.994,16.906 L17.998,32.91 C18.225,33.137 18.593,33.137 18.82,32.91 L38.68,13.05 C38.907,12.823 38.907,12.456 38.68,12.228 L27.476,1.024 C27.249,0.798 26.881,0.798 26.654,1.024 L26.654,1.024 Z" id="Fill-1" fill="#163233" mask="url(#mask-2)"></path>
                    <polyline id="Fill-3" fill="#163233" mask="url(#mask-2)" points="15.64 33.41 15.005 34.045 0.86 19.9 1.495 19.265 15.64 33.41"></polyline>
                    <path d="M0.579,20.438 L0.005,18.54 C-0.02,18.457 0.052,18.385 0.135,18.41 L2.033,18.984 C2.116,19.009 2.147,19.113 2.089,19.17 L0.765,20.494 C0.708,20.552 0.604,20.52 0.579,20.438" id="Fill-4" fill="#163233" mask="url(#mask-2)"></path>
                </g>
                <path d="M14.467,34.326 L16.365,34.9 C16.448,34.925 16.52,34.852 16.495,34.77 L15.921,32.872 C15.896,32.789 15.792,32.758 15.735,32.815 L14.41,34.139 C14.353,34.197 14.384,34.301 14.467,34.326" id="Fill-6" fill="#163233"></path>
                <g id="Group-11" transform="translate(20.000000, 14.000000)">
                    <mask id="mask-4" fill="white">
                        <use xlink:href="#path-3"></use>
                    </mask>
                    <g id="Clip-8"></g>
                    <polyline id="Fill-7" fill="#163233" mask="url(#mask-4)" points="1.664 20.14 1.029 19.505 19.052 1.481 19.687 2.117 1.664 20.14"></polyline>
                    <path d="M18.515,1.201 L20.412,0.627 C20.495,0.602 20.567,0.674 20.542,0.757 L19.968,2.655 C19.943,2.737 19.84,2.768 19.782,2.711 L18.458,1.387 C18.4,1.33 18.431,1.226 18.515,1.201" id="Fill-9" fill="#163233" mask="url(#mask-4)"></path>
                    <path d="M0.748,18.967 L0.174,20.865 C0.149,20.948 0.221,21.02 0.304,20.995 L2.202,20.421 C2.285,20.396 2.316,20.292 2.258,20.235 L0.934,18.91 C0.877,18.853 0.773,18.884 0.748,18.967" id="Fill-10" fill="#163233" mask="url(#mask-4)"></path>
                </g>
            </g>
        </g>
    </g>
</svg>