<?xml version="1.0" encoding="UTF-8"?>
<svg width="42px" height="26px" viewBox="0 0 42 26" version="1.1" xmlns="http://www.w3.org/2000/svg" xmlns:xlink="http://www.w3.org/1999/xlink">
    <!-- Generator: Sketch 57.1 (83088) - https://sketch.com -->
    <title>Bed_Petrol_RGB</title>
    <desc>Created with Sketch.</desc>
    <g id="Page-1" stroke="none" stroke-width="1" fill="none" fill-rule="evenodd">
        <g id="CH_Hausunterseite" transform="translate(-578.000000, -893.000000)" fill="#163233">
            <path d="M619.055946,911.371913 C619.055946,911.803936 618.70626,912.155328 618.276334,912.155328 L579.727629,912.155328 C579.297703,912.155328 578.948016,911.803936 578.948016,911.371913 L578.948016,908.217351 C578.948016,906.849611 580.056512,905.73571 581.417614,905.73571 L616.591301,905.73571 C617.950422,905.73571 619.055946,906.847621 619.055946,908.21337 L619.055946,911.371913 Z M616.861739,914.187029 L581.046134,914.187029 C580.936176,914.187029 580.847021,913.991922 580.847021,913.751024 C580.847021,913.511122 580.936176,913.316015 581.046134,913.316015 L616.861739,913.316015 C616.971697,913.316015 617.060852,913.511122 617.060852,913.751024 C617.060852,913.991922 616.971697,914.187029 616.861739,914.187029 Z M614.03453,904.007619 C614.03453,904.193767 613.995896,904.395842 613.914666,904.623799 L613.85721,904.788047 L584.140809,904.788047 L584.082362,904.623799 C584.003113,904.400819 583.964479,904.19974 583.964479,904.007619 C583.964479,901.962977 587.407849,900.29959 591.638757,900.29959 C594.642294,900.29959 597.390254,901.16264 598.62852,902.486581 C598.891033,902.749378 599.118874,902.740419 599.361574,902.496535 C600.610736,901.16264 603.357706,900.29959 606.360253,900.29959 C610.592151,900.29959 614.03453,901.962977 614.03453,904.007619 Z M581.87924,899.375818 C581.87924,896.385505 584.300297,893.95264 587.276098,893.95264 L610.723902,893.95264 C613.701684,893.95264 616.124723,896.387496 616.124723,899.3798 L616.124723,904.005628 C616.124723,904.436655 615.775037,904.788047 615.345111,904.788047 L614.654654,904.788047 L614.723996,904.4705 C614.758668,904.314216 614.793339,904.129063 614.793339,903.944906 C614.793339,901.477201 611.162744,899.545044 606.526676,899.545044 C603.580593,899.545044 600.949526,900.112447 599.369499,901.417474 C599.011887,901.713121 598.956413,901.707148 598.596821,901.417474 C596.969244,900.098511 594.377801,899.545044 591.429737,899.545044 C586.79367,899.545044 583.163074,901.477201 583.163074,903.944906 C583.163074,904.104177 583.183877,904.275393 583.226473,904.4705 L583.297797,904.788047 L582.658852,904.788047 C582.228926,904.788047 581.87924,904.436655 581.87924,904.005628 L581.87924,899.375818 Z M617.275815,904.858724 L617.067786,904.815919 L617.067786,899.367855 C617.067786,895.856924 614.225718,893 610.730836,893 L587.276098,893 C583.777254,893 580.931223,895.85991 580.931223,899.375818 L580.931223,904.815919 L580.723194,904.858724 C579.145148,905.181247 578,906.593782 578,908.217351 L578,912.632145 C578,912.891956 578.21001,913.10299 578.46955,913.10299 L578.688476,913.10299 C579.118402,913.10299 579.468088,913.455377 579.468088,913.886405 L579.468088,918.739194 C579.468088,918.882538 579.58399,919 579.727629,919 L580.151611,919 C580.29525,919 580.411151,918.882538 580.411151,918.739194 L580.411151,916.100272 C580.411151,915.668249 580.760838,915.316857 581.190764,915.316857 L616.808246,915.316857 C617.238172,915.316857 617.587858,915.668249 617.587858,916.100272 L617.587858,918.739194 C617.587858,918.882538 617.70376,919 617.847398,919 L618.276334,919 C618.419973,919 618.535874,918.882538 618.535874,918.739194 L618.535874,913.886405 C618.535874,913.455377 618.885561,913.10299 619.315487,913.10299 L619.53045,913.10299 C619.788999,913.10299 620,912.891956 620,912.632145 L620,908.217351 C620,906.593782 618.854852,905.180252 617.275815,904.858724 L617.275815,904.858724 Z" id="Bed_Petrol_RGB"></path>
        </g>
    </g>
</svg>