<?xml version="1.0" encoding="UTF-8"?>
<svg width="35px" height="32px" viewBox="0 0 35 32" version="1.1" xmlns="http://www.w3.org/2000/svg" xmlns:xlink="http://www.w3.org/1999/xlink">
    <!-- Generator: Sketch 57.1 (83088) - https://sketch.com -->
    <title>Group 18</title>
    <desc>Created with Sketch.</desc>
    <g id="Page-1" stroke="none" stroke-width="1" fill="none" fill-rule="evenodd">
        <g id="CH_Hausunterseite" transform="translate(-840.000000, -886.000000)" fill="#0A3A3D">
            <g id="Group-18" transform="translate(840.000000, 886.000000)">
                <path d="M19.499975,19 C19.7760388,19 20,18.7760388 20,18.500025 C20,18.2239612 19.7760388,18 19.499975,18 C19.2239612,18 19,18.2239612 19,18.500025 C19,18.7760388 19.2239612,19 19.499975,19" id="Fill-1"></path>
                <path d="M22.1107897,17.0437409 C22.1122205,17.0472207 22.1137876,17.0507006 22.1152184,17.0541805 C23.4496997,20.062259 25.1679824,21.9193041 25.8446937,22.5782038 C25.8641802,22.5970754 25.8847568,22.6148763 25.9062191,22.6313387 C27.0063179,23.470857 27.6371748,24.7349861 27.6371748,26.0992952 C27.6371748,27.6563356 26.8787702,28.9898613 25.5756308,29.8354693 C24.3476436,30.6323591 22.8326742,30.8664472 21.4190207,30.4778396 C20.3833089,30.1932265 19.1913649,30.042856 17.9718264,30.042856 C16.7730008,30.042856 15.598908,30.1883413 14.5764143,30.4635186 C13.1479075,30.8482448 11.623263,30.6065947 10.3930955,29.8006037 C9.1088293,28.9591447 8.36241642,27.6435537 8.36241642,26.0992952 C8.36241642,24.8537031 8.90449409,23.661982 9.84972328,22.8294235 C9.99512219,22.7042152 12.2062213,20.7599057 13.8496923,17.0548497 C13.8511913,17.0513698 13.8527584,17.0478899 13.8541892,17.0444101 C14.5497056,15.4005738 16.1699428,14.3384109 17.9820466,14.3384109 C19.7948998,14.3384109 21.4154095,15.4003061 22.1107897,17.0437409 M12.598335,16.5253074 C11.06531,19.9787421 8.97106144,21.8063422 8.95096178,21.8236747 C8.94850894,21.8256823 8.94612423,21.8278237 8.94373953,21.8299652 C7.70839385,22.9162195 7,24.4724568 7,26.0993621 C7,28.0883746 7.96423871,29.8180699 9.63707567,30.9140277 C11.1957874,31.9353021 13.1275353,32.2415975 14.9368456,31.7542821 C15.8435788,31.5103567 16.8931218,31.3813339 17.9720308,31.3813339 C19.0691998,31.3813339 20.1342094,31.5145727 21.0519123,31.7667962 C22.8080776,32.2496279 24.7356012,31.9848903 26.3269493,30.9522393 C28.0190684,29.854207 29,28.1081162 29,26.0993621 C29,24.3327936 28.1902221,22.6955155 26.7763642,21.6006285 C26.1376718,20.9736499 24.5887033,19.2766118 23.3668483,16.5245713 C22.4582073,14.3832477 20.3452899,13 17.982251,13 C15.6197571,13 13.5071804,14.3835154 12.598335,16.5253074" id="Fill-3"></path>
                <path d="M13.7763896,9.23557982 C12.0173628,12.1721986 8.9914429,9.69637749 8.57578534,6.33170846 C8.41359798,5.02276009 8.64981909,3.72241794 9.22361886,2.76420968 C9.64133716,2.06674084 10.2930632,1.46022083 11.1332318,1.46022083 C12.6353538,1.46022083 14.1424369,3.38706693 14.4242231,5.66837278 C14.5867921,6.97630007 14.3506473,8.27656928 13.7763896,9.23557982 M10.7587889,0.0219602924 C9.61653204,0.151126591 8.60089575,0.867631232 7.89871992,2.03946349 C7.16578574,3.26344362 6.86003396,4.89038469 7.05984877,6.50295773 C7.69264658,11.6262139 12.6836666,13.9953324 15.1010595,9.96010721 C15.8344517,8.73517893 16.1402035,7.10823787 15.9399307,5.49683177 C15.5525128,2.35979007 13.2883774,-0.268317443 10.7587889,0.0219602924" id="Fill-8"></path>
                <path d="M21.1167776,21.9590092 C22.2122991,23.408296 23.2510179,24.3735359 23.772825,24.8199284 C24.0548946,25.0612384 24.5107559,25.0598737 24.7909537,24.8167027 C25.0711515,24.5736557 25.0694236,24.1808601 24.7872821,23.9394261 C24.3061511,23.5277723 23.3461929,22.6351114 22.3233847,21.2819145 C22.106325,20.9948858 21.6604707,20.91356 21.3272139,21.1005908 C20.9939571,21.2877456 20.8997179,21.6719806 21.1167776,21.9590092" id="Fill-6"></path>
                <path d="M7.55152075,16.6548816 C7.40952226,17.4950065 6.98366654,18.1299151 6.3525699,18.4430409 C5.72154314,18.756301 4.93579952,18.7223444 4.13992314,18.3474792 C3.2741656,17.939664 2.51518646,17.1907389 2.00288777,16.2389464 C1.4908686,15.2870196 1.29394353,14.2594622 1.44852063,13.3454515 C1.590589,12.5053938 2.01644471,11.8704181 2.64754135,11.5573593 C2.64761124,11.5572922 2.64768112,11.5572922 2.647751,11.5572251 C3.34551425,11.2107466 4.15382948,11.31973 4.86018812,11.6524513 C5.72587577,12.0601994 6.48485491,12.8091916 6.99715361,13.7613868 C7.50917277,14.7132464 7.70609784,15.740938 7.55152075,16.6548816 M5.47563139,10.4474604 C4.27241779,9.88066639 3.04006376,9.85140731 2.00589266,10.3649847 C0.97165168,10.8780923 0.283881429,11.8601505 0.068996901,13.1303033 C-0.133239139,14.3263689 0.112532856,15.6491343 0.761169665,16.8550648 C1.41015588,18.060861 2.39149683,19.0188274 3.52440999,19.5524701 C4.64879765,20.0820192 5.89456886,20.1810035 6.99400895,19.6354827 C8.0283897,19.122375 8.71622983,18.1401826 8.93097459,16.8699627 C9.13328052,15.6739643 8.88743864,14.3511317 8.23880183,13.1453355 C7.58995538,11.9392037 6.60861443,10.9811031 5.47563139,10.4474604" id="Fill-11"></path>
                <path d="M26.4251726,6.33133936 C26.1318495,8.69521447 24.4925069,10.7227167 22.9464354,10.5309308 C22.9436113,10.530639 22.9407872,10.5303472 22.9379631,10.5299825 C22.2439254,10.4518529 21.5856848,9.92011964 21.1318469,9.07098045 C20.6272517,8.12678728 20.4242993,6.88663554 20.574968,5.66836884 C20.8575291,3.38663554 22.3649793,1.45885614 23.8667815,1.45885614 C23.9374599,1.45885614 23.9984448,1.4621389 24.0530183,1.46899621 C24.8668125,1.55544208 25.4968122,2.23526408 25.8679885,2.9293843 C26.3727363,3.87343157 26.5758413,5.11343741 26.4251726,6.33133936 M23.8667051,0 C21.5524827,0 19.4406021,2.41464838 19.0589691,5.49700905 C18.6519957,8.78676685 20.3882731,12 23.1325196,12 C25.4463604,12 27.5585463,9.58549752 27.9410188,6.50299095 C28.3475343,3.21921506 26.6164471,0 23.8667051,0" id="Fill-14"></path>
                <path d="M30.139928,11.6519077 C31.7842696,10.8770939 33.2575383,11.606595 33.5515351,13.3455291 C33.8704801,15.2322163 32.6575947,17.5023496 30.8601398,18.3493282 C30.0643148,18.7242489 29.278483,18.7580824 28.6474415,18.4449212 L28.6474415,18.4449883 C28.0162603,18.1316929 27.5904646,17.4964422 27.4483929,16.6561767 C27.1289587,14.7660659 28.345548,12.4976779 30.139928,11.6519077 M26.0689069,16.8713953 C26.5160868,19.5167851 29.0009086,20.7208949 31.4755974,19.5547806 C33.8193958,18.4503587 35.3496888,15.6064657 34.931091,13.1303777 C34.4891523,10.5160019 32.0288594,9.26617659 29.5242607,10.4467238 C27.1812311,11.55081 25.6502392,14.3951058 26.0689069,16.8713953" id="Fill-16"></path>
            </g>
        </g>
    </g>
</svg>