<?xml version="1.0" encoding="UTF-8"?>
<svg width="94px" height="113px" viewBox="0 0 94 113" version="1.1" xmlns="http://www.w3.org/2000/svg" xmlns:xlink="http://www.w3.org/1999/xlink">
    <!-- Generator: Sketch 56.3 (81716) - https://sketch.com -->
    <title>CH-Index</title>
    <desc>Created with Sketch.</desc>
    <defs>
        <polygon id="path-1" points="0.955353643 0.7541 4.54817096 0.7541 4.54817096 13 0.955353643 13"></polygon>
        <polygon id="path-3" points="0.477753643 0.7541 4.06984297 0.7541 4.06984297 13 0.477753643 13"></polygon>
        <polygon id="path-5" points="0.000253642811 0.7541 3.59309346 0.7541 3.59309346 13 0.000253642811 13"></polygon>
    </defs>
    <g id="Page-1" stroke="none" stroke-width="1" fill="none" fill-rule="evenodd">
        <g id="CH_Startseite-" transform="translate(-240.000000, -4459.000000)">
            <g id="CH-Index" transform="translate(240.000000, 4459.000000)">
                <rect id="Rectangle" fill="#F5F1E5" x="0" y="72" width="94" height="41"></rect>
                <rect id="Rectangle-Copy-5" fill="#5EA9B5" x="0" y="0" width="94" height="72"></rect>
                <path d="M21.785,91.755 C21.785,92.7950052 21.9074988,93.5374978 22.1525,93.9825 C22.3975012,94.4275022 22.7749975,94.65 23.285,94.65 C23.7350022,94.65 24.1174984,94.5300012 24.4325,94.29 C24.7475016,94.0499988 24.9499995,93.7150022 25.04,93.285 C25.0600001,93.1949996 25.0774999,93.0375011 25.0925,92.8125 C25.1075001,92.5874989 25.115,92.3500013 25.115,92.1 C25.115,91.1799954 25.0600005,90.4650026 24.95,89.955 C24.8399994,89.4449975 24.7000008,89.0675012 24.53,88.8225 C24.3599992,88.5774988 24.175001,88.4275003 23.975,88.3725 C23.774999,88.3174997 23.5850009,88.29 23.405,88.29 C23.1949989,88.29 22.992501,88.3274996 22.7975,88.4025 C22.602499,88.4775004 22.4300007,88.6374988 22.28,88.8825 C22.1299993,89.1275012 22.0100004,89.4774977 21.92,89.9325 C21.8299995,90.3875023 21.785,90.9949962 21.785,91.755 Z M19.76,91.485 C19.76,91.0149976 19.862499,90.575002 20.0675,90.165 C20.272501,89.754998 20.5424983,89.3950016 20.8775,89.085 C21.2125017,88.7749984 21.5949978,88.5300009 22.025,88.35 C22.4550021,88.1699991 22.8949977,88.08 23.345,88.08 C23.8750026,88.08 24.3724977,88.1849989 24.8375,88.395 C25.3025023,88.605001 25.7049983,88.909998 26.045,89.31 C26.3850017,89.710002 26.652499,90.2024971 26.8475,90.7875 C27.042501,91.3725029 27.14,92.0399963 27.14,92.79 C27.14,93.6700044 27.0575008,94.4974961 26.8925,95.2725 C26.7274992,96.0475039 26.4675018,96.7249971 26.1125,97.305 C25.7574982,97.8850029 25.3075027,98.3449983 24.7625,98.685 C24.2174973,99.0250017 23.5600039,99.195 22.79,99.195 C22.2799974,99.195 21.8625016,99.1400005 21.5375,99.03 C21.2124984,98.9199995 20.9600009,98.7825008 20.78,98.6175 C20.5999991,98.4524992 20.4775003,98.2775009 20.4125,98.0925 C20.3474997,97.9074991 20.315,97.7450007 20.315,97.605 C20.315,97.2849984 20.4024991,97.0500008 20.5775,96.9 C20.7525009,96.7499993 20.9949984,96.675 21.305,96.675 C21.3850004,96.675 21.4699995,96.6799999 21.56,96.69 C21.6500005,96.7 21.7349996,96.7274998 21.815,96.7725 C21.8950004,96.8175002 21.9599997,96.8799996 22.01,96.96 C22.0600002,97.0400004 22.085,97.1499993 22.085,97.29 C22.085,97.3500003 22.0750001,97.4274995 22.055,97.5225 C22.0349999,97.6175005 22.0150001,97.7149995 21.995,97.815 C21.9749999,97.9150005 21.9550001,98.0099996 21.935,98.1 C21.9149999,98.1900004 21.905,98.2649997 21.905,98.325 C21.905,98.4950008 21.9349997,98.6249995 21.995,98.715 C22.0550003,98.8050004 22.1324995,98.8724998 22.2275,98.9175 C22.3225005,98.9625002 22.4249994,98.9875 22.535,98.9925 C22.6450005,98.9975 22.7449995,99 22.835,99 C23.3050023,99 23.6849985,98.8700013 23.975,98.61 C24.2650014,98.3499987 24.4949991,97.9925023 24.665,97.5375 C24.8350009,97.0824977 24.9499997,96.5425031 25.01,95.9175 C25.0700003,95.2924969 25.1,94.6150037 25.1,93.885 L25.07,93.885 C25.0099997,93.9750004 24.9350004,94.0774994 24.845,94.1925 C24.7549995,94.3075006 24.6375007,94.4149995 24.4925,94.515 C24.3474993,94.6150005 24.1675011,94.6974997 23.9525,94.7625 C23.7374989,94.8275003 23.4800015,94.86 23.18,94.86 C22.7199977,94.86 22.285002,94.7725009 21.875,94.5975 C21.4649979,94.4224991 21.1025016,94.1825015 20.7875,93.8775 C20.4724984,93.5724985 20.2225009,93.215002 20.0375,92.805 C19.8524991,92.394998 19.76,91.9550024 19.76,91.485 Z M35.49,99 L30.87,99 L30.87,98.79 L32.28,98.79 L32.28,89.445 C31.9499983,89.6250009 31.6200016,89.8099991 31.29,90 C30.9599983,90.1900009 30.6350016,90.3749991 30.315,90.555 L30.195,90.36 C30.5550018,90.1499989 30.8749986,89.9650008 31.155,89.805 C31.4350014,89.6449992 31.6974988,89.4850008 31.9425,89.325 C32.1875012,89.1649992 32.4349987,88.987501 32.685,88.7925 C32.9350012,88.597499 33.2099985,88.3600014 33.51,88.08 L34.11,88.08 L34.11,98.79 L35.49,98.79 L35.49,99 Z M39.19,101.505 C39.6800024,101.164998 40.0699986,100.852501 40.36,100.5675 C40.6500015,100.282499 40.795,99.9600018 40.795,99.6 C40.795,99.4399992 40.7700003,99.3100005 40.72,99.21 C40.6699998,99.1099995 40.6200002,99.0400002 40.57,99 C40.4799995,99.0500002 40.3800005,99.0849999 40.27,99.105 C40.1599994,99.1250001 40.0500005,99.135 39.94,99.135 C39.8399995,99.135 39.7275006,99.1150002 39.6025,99.075 C39.4774994,99.0349998 39.3650005,98.9750004 39.265,98.895 C39.1649995,98.8149996 39.0800003,98.7075007 39.01,98.5725 C38.9399997,98.4374993 38.905,98.2750009 38.905,98.085 C38.905,97.894999 38.9399997,97.7325007 39.01,97.5975 C39.0800003,97.4624993 39.1699994,97.3525004 39.28,97.2675 C39.3900006,97.1824996 39.5124993,97.1200002 39.6475,97.08 C39.7825007,97.0399998 39.9149994,97.02 40.045,97.02 C40.4250019,97.02 40.7499986,97.1749985 41.02,97.485 C41.2900013,97.7950015 41.425,98.2349971 41.425,98.805 C41.425,99.1850019 41.3550007,99.5249985 41.215,99.825 C41.0749993,100.125001 40.8975011,100.392499 40.6825,100.6275 C40.4674989,100.862501 40.2350013,101.067499 39.985,101.2425 C39.7349988,101.417501 39.5050011,101.569999 39.295,101.7 L39.19,101.505 Z M45.425,88.185 L45.875,88.185 C45.9450004,88.2550004 46.0599992,88.3524994 46.22,88.4775 C46.3800008,88.6025006 46.5724989,88.7249994 46.7975,88.845 C47.0225011,88.9650006 47.2724986,89.0674996 47.5475,89.1525 C47.8225014,89.2375004 48.1149985,89.28 48.425,89.28 C48.4950003,89.28 48.6024993,89.2750001 48.7475,89.265 C48.8925007,89.2549999 49.0524991,89.2150003 49.2275,89.145 C49.4025009,89.0749996 49.587499,88.9700007 49.7825,88.83 C49.977501,88.6899993 50.1649991,88.4900013 50.345,88.23 L50.54,88.32 C50.2099983,88.7900024 49.9275012,89.1799984 49.6925,89.49 C49.4574988,89.8000016 49.235001,90.049999 49.025,90.24 C48.814999,90.4300009 48.6025011,90.5624996 48.3875,90.6375 C48.1724989,90.7125004 47.9200015,90.75 47.63,90.75 C47.4599992,90.75 47.272501,90.7275002 47.0675,90.6825 C46.862499,90.6374998 46.657501,90.5800004 46.4525,90.51 C46.247499,90.4399997 46.050001,90.3675004 45.86,90.2925 C45.6699991,90.2174996 45.5000007,90.1500003 45.35,90.09 L44.81,93.375 L44.84,93.405 C44.9600006,93.2549992 45.0799994,93.1175006 45.2,92.9925 C45.3200006,92.8674994 45.4649991,92.7575005 45.635,92.6625 C45.8050008,92.5674995 46.0049988,92.4925003 46.235,92.4375 C46.4650011,92.3824997 46.7449984,92.355 47.075,92.355 C47.5450024,92.355 47.9874979,92.4299992 48.4025,92.58 C48.8175021,92.7300008 49.1824984,92.9424986 49.4975,93.2175 C49.8125016,93.4925014 50.0624991,93.8224981 50.2475,94.2075 C50.4325009,94.5925019 50.525,95.0199976 50.525,95.49 C50.525,95.900002 50.44,96.3249978 50.27,96.765 C50.0999992,97.2050022 49.8500017,97.6049982 49.52,97.965 C49.1899983,98.3250018 48.7875024,98.6199989 48.3125,98.85 C47.8374976,99.0800012 47.2900031,99.195 46.67,99.195 C46.2799981,99.195 45.9175017,99.1500004 45.5825,99.06 C45.2474983,98.9699995 44.9575012,98.8500007 44.7125,98.7 C44.4674988,98.5499992 44.2775007,98.375001 44.1425,98.175 C44.0074993,97.974999 43.94,97.7650011 43.94,97.545 C43.94,97.3349989 43.9774996,97.1750005 44.0525,97.065 C44.1275004,96.9549995 44.2174995,96.8725003 44.3225,96.8175 C44.4275005,96.7624997 44.5299995,96.7300001 44.63,96.72 C44.7300005,96.7099999 44.8049998,96.705 44.855,96.705 C45.2350019,96.705 45.4824994,96.7724993 45.5975,96.9075 C45.7125006,97.0425007 45.77,97.1949992 45.77,97.365 C45.77,97.3950002 45.7650001,97.4424997 45.755,97.5075 C45.745,97.5725003 45.7375,97.6424996 45.7325,97.7175 C45.7275,97.7925004 45.7200001,97.8624997 45.71,97.9275 C45.6999999,97.9925003 45.695,98.0399999 45.695,98.07 C45.695,98.260001 45.7274997,98.4149994 45.7925,98.535 C45.8575003,98.6550006 45.9349996,98.7499997 46.025,98.82 C46.1150004,98.8900004 46.2124995,98.9374999 46.3175,98.9625 C46.4225005,98.9875001 46.5149996,99 46.595,99 C46.795001,99 47.0074989,98.9800002 47.2325,98.94 C47.4575011,98.8999998 47.6624991,98.7750011 47.8475,98.565 C48.0325009,98.354999 48.1874994,98.0200023 48.3125,97.56 C48.4375006,97.0999977 48.5,96.4500042 48.5,95.61 C48.5,94.9499967 48.4525005,94.422502 48.3575,94.0275 C48.2624995,93.632498 48.1325008,93.330001 47.9675,93.12 C47.8024992,92.909999 47.6125011,92.7725003 47.3975,92.7075 C47.1824989,92.6424997 46.9500012,92.61 46.7,92.61 C46.3699984,92.61 46.0900011,92.6749993 45.86,92.805 C45.6299988,92.9350007 45.4350008,93.0899991 45.275,93.27 C45.1149992,93.4500009 44.9825005,93.642499 44.8775,93.8475 C44.7724995,94.052501 44.6850003,94.2299993 44.615,94.38 L44.42,94.38 L45.425,88.185 Z M55.125,93.645 C55.125,94.5850047 55.1374999,95.3949966 55.1625,96.075 C55.1875001,96.7550034 55.2549994,97.3099979 55.365,97.74 C55.4750005,98.1700022 55.6374989,98.487499 55.8525,98.6925 C56.0675011,98.897501 56.369998,99 56.76,99 C57.1500019,99 57.4524989,98.897501 57.6675,98.6925 C57.8825011,98.487499 58.0449994,98.1700022 58.155,97.74 C58.2650005,97.3099979 58.3324999,96.7550034 58.3575,96.075 C58.3825001,95.3949966 58.395,94.5850047 58.395,93.645 C58.395,92.654995 58.3825001,91.8200034 58.3575,91.14 C58.3324999,90.4599966 58.2650005,89.9075021 58.155,89.4825 C58.0449994,89.0574979 57.8825011,88.7525009 57.6675,88.5675 C57.4524989,88.3824991 57.1500019,88.29 56.76,88.29 C56.369998,88.29 56.0675011,88.392499 55.8525,88.5975 C55.6374989,88.802501 55.4750005,89.1199979 55.365,89.55 C55.2549994,89.9800022 55.1875001,90.5324966 55.1625,91.2075 C55.1374999,91.8825034 55.125,92.6949953 55.125,93.645 Z M53.1,93.645 C53.1,93.4049988 53.1149999,93.1025018 53.145,92.7375 C53.1750002,92.3724982 53.2324996,91.9825021 53.3175,91.5675 C53.4025004,91.1524979 53.5274992,90.7375021 53.6925,90.3225 C53.8575008,89.9074979 54.0749987,89.5350016 54.345,89.205 C54.6150014,88.8749983 54.947498,88.605001 55.3425,88.395 C55.737502,88.1849989 56.2099973,88.08 56.76,88.08 C57.3700031,88.08 57.8849979,88.1924989 58.305,88.4175 C58.7250021,88.6425011 59.0699987,88.9274983 59.34,89.2725 C59.6100014,89.6175017 59.8174993,90.0049978 59.9625,90.435 C60.1075007,90.8650021 60.2149997,91.2874979 60.285,91.7025 C60.3550003,92.1175021 60.3949999,92.4974983 60.405,92.8425 C60.4150001,93.1875017 60.42,93.454999 60.42,93.645 C60.42,93.8850012 60.4050002,94.1874982 60.375,94.5525 C60.3449999,94.9175018 60.2875004,95.3074979 60.2025,95.7225 C60.1174996,96.1375021 59.9925008,96.549998 59.8275,96.96 C59.6624992,97.370002 59.4450014,97.7424983 59.175,98.0775 C58.9049987,98.4125017 58.572502,98.682499 58.1775,98.8875 C57.782498,99.092501 57.3100028,99.195 56.76,99.195 C56.149997,99.195 55.6350021,99.0850011 55.215,98.865 C54.7949979,98.6449989 54.4500014,98.3600018 54.18,98.01 C53.9099987,97.6599983 53.7025007,97.2725021 53.5575,96.8475 C53.4124993,96.4224979 53.3050004,96.0050021 53.235,95.595 C53.1649997,95.1849979 53.1250001,94.8050018 53.115,94.455 C53.1049999,94.1049982 53.1,93.8350009 53.1,93.645 Z M65.185,92.91 C64.8649984,92.91 64.5500016,92.8500006 64.24,92.73 C63.9299985,92.6099994 63.6550012,92.4425011 63.415,92.2275 C63.1749988,92.0124989 62.9800008,91.7575015 62.83,91.4625 C62.6799993,91.1674985 62.605,90.8450017 62.605,90.495 C62.605,90.1449983 62.6799993,89.8225015 62.83,89.5275 C62.9800008,89.2324985 63.1749988,88.9775011 63.415,88.7625 C63.6550012,88.5474989 63.9299985,88.3800006 64.24,88.26 C64.5500016,88.1399994 64.8649984,88.08 65.185,88.08 C65.5050016,88.08 65.8199985,88.1399994 66.13,88.26 C66.4400016,88.3800006 66.7149988,88.5474989 66.955,88.7625 C67.1950012,88.9775011 67.3899993,89.2324985 67.54,89.5275 C67.6900007,89.8225015 67.765,90.1449983 67.765,90.495 C67.765,90.8450017 67.6900007,91.1674985 67.54,91.4625 C67.3899993,91.7575015 67.1950012,92.0124989 66.955,92.2275 C66.7149988,92.4425011 66.4400016,92.6099994 66.13,92.73 C65.8199985,92.8500006 65.5050016,92.91 65.185,92.91 Z M70.345,99.195 C70.0249984,99.195 69.7100016,99.1350006 69.4,99.015 C69.0899985,98.8949994 68.8150012,98.730001 68.575,98.52 C68.3349988,98.3099989 68.1400007,98.0575015 67.99,97.7625 C67.8399993,97.4674985 67.765,97.1450018 67.765,96.795 C67.765,96.4449982 67.8399993,96.1225015 67.99,95.8275 C68.1400007,95.5324985 68.3349988,95.2775011 68.575,95.0625 C68.8150012,94.8474989 69.0899985,94.6800006 69.4,94.56 C69.7100016,94.4399994 70.0249984,94.38 70.345,94.38 C70.6650016,94.38 70.9799985,94.4399994 71.29,94.56 C71.6000016,94.6800006 71.8749988,94.8474989 72.115,95.0625 C72.3550012,95.2775011 72.5499993,95.5324985 72.7,95.8275 C72.8500008,96.1225015 72.925,96.4449982 72.925,96.795 C72.925,97.1450018 72.8500008,97.4674985 72.7,97.7625 C72.5499993,98.0575015 72.3550012,98.3099989 72.115,98.52 C71.8749988,98.730001 71.6000016,98.8949994 71.29,99.015 C70.9799985,99.1350006 70.6650016,99.195 70.345,99.195 Z M65.185,92.7 C65.4750015,92.7 65.6949993,92.6450005 65.845,92.535 C65.9950008,92.4249995 66.1074996,92.272501 66.1825,92.0775 C66.2575004,91.882499 66.3,91.6500013 66.31,91.38 C66.3200001,91.1099986 66.325,90.8150016 66.325,90.495 C66.325,90.1749984 66.3200001,89.8800014 66.31,89.61 C66.3,89.3399986 66.2575004,89.107501 66.1825,88.9125 C66.1074996,88.717499 65.9950008,88.5650006 65.845,88.455 C65.6949993,88.3449995 65.4750015,88.29 65.185,88.29 C64.9049986,88.29 64.6875008,88.3449995 64.5325,88.455 C64.3774992,88.5650006 64.2625004,88.717499 64.1875,88.9125 C64.1124996,89.107501 64.0700001,89.3399986 64.06,89.61 C64.05,89.8800014 64.045,90.1749984 64.045,90.495 C64.045,90.8150016 64.05,91.1099986 64.06,91.38 C64.0700001,91.6500013 64.1124996,91.882499 64.1875,92.0775 C64.2625004,92.272501 64.3774992,92.4249995 64.5325,92.535 C64.6875008,92.6450005 64.9049986,92.7 65.185,92.7 Z M70.435,88.08 L70.735,88.215 L65.095,99.195 L64.795,99.06 L70.435,88.08 Z M70.345,99 C70.6350015,99 70.8549993,98.9450006 71.005,98.835 C71.1550008,98.7249994 71.2674996,98.572501 71.3425,98.3775 C71.4175004,98.182499 71.46,97.9500014 71.47,97.68 C71.4800001,97.4099987 71.485,97.1150016 71.485,96.795 C71.485,96.4749984 71.4800001,96.1800013 71.47,95.91 C71.46,95.6399986 71.4175004,95.407501 71.3425,95.2125 C71.2674996,95.017499 71.1550008,94.8650006 71.005,94.755 C70.8549993,94.6449995 70.6350015,94.59 70.345,94.59 C70.0649986,94.59 69.8475008,94.6449995 69.6925,94.755 C69.5374992,94.8650006 69.4225004,95.017499 69.3475,95.2125 C69.2724996,95.407501 69.2300001,95.6399986 69.22,95.91 C69.21,96.1800013 69.205,96.4749984 69.205,96.795 C69.205,97.1150016 69.21,97.4099987 69.22,97.68 C69.2300001,97.9500014 69.2724996,98.182499 69.3475,98.3775 C69.4225004,98.572501 69.5374992,98.7249994 69.6925,98.835 C69.8475008,98.9450006 70.0649986,99 70.345,99 Z" id="91,50%" fill="#0A3A3D" fill-rule="nonzero"></path>
                <g id="Group-24" transform="translate(32.000000, 12.000000)">
                    <path d="M29.388,14.679 L27.814,14.679 C27.751,14.679 27.701,14.628 27.701,14.566 L27.701,6.972 C27.701,6.943 27.689,6.914 27.667,6.892 L23.354,2.579 C23.31,2.535 23.238,2.535 23.194,2.579 L18.881,6.892 C18.86,6.913 18.848,6.942 18.848,6.972 L18.848,14.566 C18.848,14.628 18.797,14.679 18.735,14.679 L17.16,14.679 C17.098,14.679 17.047,14.628 17.047,14.566 L17.047,6.227 C17.047,6.197 17.059,6.168 17.08,6.147 L23.194,0.033 C23.238,-0.011 23.31,-0.011 23.354,0.033 L29.468,6.146 C29.49,6.168 29.501,6.197 29.501,6.226 L29.501,14.566 C29.501,14.628 29.45,14.679 29.388,14.679" id="Fill-1" fill="#F5F1E5"></path>
                    <path d="M29.388,22.2288 L17.16,22.2288 C17.098,22.2288 17.047,22.1788 17.047,22.1158 L17.047,20.5428 C17.047,20.4798 17.098,20.4288 17.16,20.4288 L29.388,20.4288 C29.45,20.4288 29.501,20.4798 29.501,20.5428 L29.501,22.1158 C29.501,22.1788 29.45,22.2288 29.388,22.2288" id="Fill-3" fill="#F5F1E5"></path>
                    <path d="M29.388,26.305 L17.16,26.305 C17.098,26.305 17.047,26.254 17.047,26.192 L17.047,24.618 C17.047,24.556 17.098,24.505 17.16,24.505 L29.388,24.505 C29.45,24.505 29.501,24.556 29.501,24.618 L29.501,26.192 C29.501,26.254 29.45,26.305 29.388,26.305" id="Fill-5" fill="#F5F1E5"></path>
                    <path d="M29.388,30.3806 L17.16,30.3806 C17.098,30.3806 17.047,30.3296 17.047,30.2676 L17.047,28.6946 C17.047,28.6316 17.098,28.5816 17.16,28.5816 L29.388,28.5816 C29.45,28.5816 29.501,28.6316 29.501,28.6946 L29.501,30.2676 C29.501,30.3296 29.45,30.3806 29.388,30.3806" id="Fill-7" fill="#F5F1E5"></path>
                    <g id="Group-11" transform="translate(8.000000, 18.528000)">
                        <mask id="mask-2" fill="white">
                            <use xlink:href="#path-1"></use>
                        </mask>
                        <g id="Clip-10"></g>
                        <path d="M3.5365,13.0001 C3.6405,13.0001 3.7015,12.8771 3.6395,12.7901 C3.1655,12.1351 2.7665,11.4041 2.6835,10.1241 C2.5825,8.5611 3.0525,7.7711 3.5505,6.9361 C4.0905,6.0271 4.6495,5.0871 4.5325,3.2771 C4.4615,2.1871 4.1865,1.4331 3.8375,0.8191 C3.8145,0.7781 3.7715,0.7541 3.7265,0.7541 L2.1735,0.7541 C2.0725,0.7541 2.0125,0.8711 2.0675,0.9581 C2.4475,1.5451 2.7485,2.2361 2.8185,3.3281 C2.9205,4.8911 2.4505,5.6801 1.9535,6.5161 C1.4125,7.4251 0.8525,8.3651 0.9715,10.1751 C1.0545,11.4541 1.4175,12.2711 1.8555,12.9421 C1.8795,12.9791 1.9195,13.0001 1.9615,13.0001 L3.5365,13.0001 Z" id="Fill-9" fill="#F5F1E5" mask="url(#mask-2)"></path>
                    </g>
                    <g id="Group-14" transform="translate(4.000000, 18.528000)">
                        <mask id="mask-4" fill="white">
                            <use xlink:href="#path-3"></use>
                        </mask>
                        <g id="Clip-13"></g>
                        <path d="M3.0589,13.0001 C3.1629,13.0001 3.2229,12.8771 3.1609,12.7901 C2.6879,12.1351 2.2889,11.4041 2.2059,10.1241 C2.1049,8.5611 2.5749,7.7711 3.0729,6.9361 C3.6139,6.0271 4.1719,5.0871 4.0539,3.2771 C3.9839,2.1871 3.7089,1.4331 3.3599,0.8191 C3.3359,0.7781 3.2939,0.7541 3.2489,0.7541 L1.6969,0.7541 C1.5949,0.7541 1.5339,0.8711 1.5899,0.9581 C1.9709,1.5451 2.2709,2.2361 2.3409,3.3281 C2.4429,4.8911 1.9729,5.6801 1.4759,6.5161 C0.9349,7.4251 0.3749,8.3651 0.4939,10.1751 C0.5769,11.4541 0.9399,12.2711 1.3769,12.9421 C1.4019,12.9791 1.4419,13.0001 1.4839,13.0001 L3.0589,13.0001 Z" id="Fill-12" fill="#F5F1E5" mask="url(#mask-4)"></path>
                    </g>
                    <g id="Group-17" transform="translate(0.000000, 18.528000)">
                        <mask id="mask-6" fill="white">
                            <use xlink:href="#path-5"></use>
                        </mask>
                        <g id="Clip-16"></g>
                        <path d="M2.5814,13.0001 C2.6854,13.0001 2.7464,12.8771 2.6844,12.7901 C2.2104,12.1351 1.8124,11.4041 1.7284,10.1241 C1.6274,8.5611 2.0974,7.7711 2.5954,6.9361 C3.1364,6.0271 3.6944,5.0871 3.5774,3.2771 C3.5064,2.1871 3.2324,1.4331 2.8824,0.8191 C2.8594,0.7781 2.8174,0.7541 2.7714,0.7541 L1.2194,0.7541 C1.1174,0.7541 1.0574,0.8711 1.1134,0.9581 C1.4934,1.5451 1.7934,2.2361 1.8634,3.3281 C1.9664,4.8911 1.4954,5.6801 0.9984,6.5161 C0.4574,7.4251 -0.1026,8.3651 0.0164,10.1751 C0.0994,11.4541 0.4634,12.2711 0.9004,12.9421 C0.9244,12.9791 0.9644,13.0001 1.0064,13.0001 L2.5814,13.0001 Z" id="Fill-15" fill="#F5F1E5" mask="url(#mask-6)"></path>
                    </g>
                    <path d="M12.3968,3.1429 C12.3968,3.0389 12.2738,2.9779 12.1868,3.0399 C11.5318,3.5139 10.8008,3.9119 9.5208,3.9959 C7.9588,4.0969 7.1678,3.6269 6.3328,3.1289 C5.4228,2.5889 4.4838,2.0299 2.6738,2.1469 C1.5838,2.2179 0.8298,2.4919 0.2148,2.8419 C0.1748,2.8649 0.1508,2.9069 0.1508,2.9529 L0.1508,4.5059 C0.1508,4.6069 0.2678,4.6679 0.3548,4.6109 C0.9418,4.2309 1.6328,3.9309 2.7248,3.8599 C4.2878,3.7589 5.0768,4.2279 5.9138,4.7259 C6.8218,5.2669 7.7608,5.8259 9.5718,5.7079 C10.8518,5.6249 11.6678,5.2619 12.3388,4.8239 C12.3758,4.7999 12.3968,4.7609 12.3968,4.7179 L12.3968,3.1429 Z" id="Fill-18" fill="#F5F1E5"></path>
                    <path d="M12.3968,7.6204 C12.3968,7.5164 12.2738,7.4554 12.1868,7.5184 C11.5318,7.9914 10.8008,8.3894 9.5208,8.4734 C7.9588,8.5744 7.1678,8.1044 6.3328,7.6064 C5.4228,7.0664 4.4838,6.5064 2.6738,6.6244 C1.5838,6.6954 0.8298,6.9694 0.2148,7.3194 C0.1748,7.3424 0.1508,7.3844 0.1508,7.4294 L0.1508,8.9834 C0.1508,9.0844 0.2678,9.1454 0.3548,9.0884 C0.9418,8.7084 1.6328,8.4084 2.7248,8.3374 C4.2878,8.2364 5.0768,8.7064 5.9138,9.2034 C6.8218,9.7444 7.7608,10.3034 9.5718,10.1854 C10.8518,10.1024 11.6678,9.7394 12.3388,9.3014 C12.3758,9.2774 12.3968,9.2374 12.3968,9.1954 L12.3968,7.6204 Z" id="Fill-20" fill="#F5F1E5"></path>
                    <path d="M12.3968,12.0974 C12.3968,11.9934 12.2738,11.9324 12.1868,11.9954 C11.5318,12.4684 10.8008,12.8674 9.5208,12.9504 C7.9588,13.0514 7.1678,12.5814 6.3328,12.0844 C5.4228,11.5434 4.4838,10.9844 2.6738,11.1014 C1.5838,11.1724 0.8298,11.4474 0.2148,11.7964 C0.1748,11.8194 0.1508,11.8624 0.1508,11.9074 L0.1508,13.4604 C0.1508,13.5614 0.2678,13.6224 0.3548,13.5654 C0.9418,13.1854 1.6328,12.8864 2.7248,12.8154 C4.2878,12.7134 5.0768,13.1834 5.9138,13.6804 C6.8218,14.2224 7.7608,14.7814 9.5718,14.6634 C10.8518,14.5794 11.6678,14.2164 12.3388,13.7784 C12.3758,13.7554 12.3968,13.7154 12.3968,13.6724 L12.3968,12.0974 Z" id="Fill-22" fill="#F5F1E5"></path>
                </g>
                <path d="M24.78,60.52 C24.8333336,60.52 24.8816665,60.5416665 24.925,60.585 L25.305,61 C25.0116652,61.3400017 24.6558354,61.6049991 24.2375,61.795 C23.8191646,61.9850009 23.315003,62.08 22.725,62.08 C22.2083308,62.08 21.7400021,61.9908342 21.32,61.8125 C20.8999979,61.6341658 20.5416681,61.3841683 20.245,61.0625 C19.9483319,60.7408317 19.7183342,60.3550022 19.555,59.905 C19.3916658,59.4549978 19.31,58.9600027 19.31,58.42 C19.31,57.8799973 19.3974991,57.3850022 19.5725,56.935 C19.7475009,56.4849977 19.9933317,56.098335 20.31,55.775 C20.6266682,55.4516651 21.0058311,55.2008342 21.4475,55.0225 C21.8891689,54.8441658 22.376664,54.755 22.91,54.755 C23.4366693,54.755 23.8908314,54.8366659 24.2725,55 C24.6541686,55.1633341 24.9933318,55.3849986 25.29,55.665 L24.975,56.11 C24.9516665,56.1433335 24.9250001,56.1708332 24.895,56.1925 C24.8649999,56.2141668 24.821667,56.225 24.765,56.225 C24.7216665,56.225 24.6758336,56.2091668 24.6275,56.1775 C24.5791664,56.1458332 24.521667,56.1066669 24.455,56.06 C24.388333,56.0133331 24.31,55.9633336 24.22,55.91 C24.1299996,55.8566664 24.023334,55.8066669 23.9,55.76 C23.776666,55.7133331 23.6333341,55.6741668 23.47,55.6425 C23.3066659,55.6108332 23.1183344,55.595 22.905,55.595 C22.5216647,55.595 22.1708349,55.6608327 21.8525,55.7925 C21.5341651,55.9241673 21.2600012,56.1116654 21.03,56.355 C20.7999988,56.5983345 20.620834,56.8949983 20.4925,57.245 C20.364166,57.5950018 20.3,57.9866645 20.3,58.42 C20.3,58.8666689 20.364166,59.2649982 20.4925,59.615 C20.620834,59.9650017 20.7958322,60.2608321 21.0175,60.5025 C21.2391678,60.7441679 21.5016652,60.9283327 21.805,61.055 C22.1083348,61.1816673 22.4349982,61.245 22.785,61.245 C22.9983344,61.245 23.1899991,61.2325001 23.36,61.2075 C23.5300009,61.1824999 23.6874993,61.1433336 23.8325,61.09 C23.9775007,61.0366664 24.1124994,60.9691671 24.2375,60.8875 C24.3625006,60.8058329 24.4883327,60.7083339 24.615,60.595 C24.671667,60.5449998 24.7266664,60.52 24.78,60.52 Z M33.39,62 L32.415,62 L32.415,58.74 L28.555,58.74 L28.555,62 L27.58,62 L27.58,54.835 L28.555,54.835 L28.555,58.03 L32.415,58.03 L32.415,54.835 L33.39,54.835 L33.39,62 Z M35.77,58.625 L38.24,58.625 L38.24,59.38 L35.77,59.38 L35.77,58.625 Z M41.76,62 L40.79,62 L40.79,54.835 L41.76,54.835 L41.76,62 Z M45.18,54.835 C45.2666671,54.835 45.3308331,54.8458332 45.3725,54.8675 C45.4141669,54.8891668 45.4616664,54.933333 45.515,55 L49.665,60.4 C49.655,60.3133329 49.6483334,60.2291671 49.645,60.1475 C49.6416667,60.0658329 49.64,59.9866671 49.64,59.91 L49.64,54.835 L50.49,54.835 L50.49,62 L50,62 C49.923333,62 49.8591669,61.9866668 49.8075,61.96 C49.7558331,61.9333332 49.7050003,61.8883336 49.655,61.825 L45.51,56.43 C45.5166667,56.5133338 45.5216667,56.5949996 45.525,56.675 C45.5283334,56.7550004 45.53,56.828333 45.53,56.895 L45.53,62 L44.68,62 L44.68,54.835 L45.18,54.835 Z M59.45,58.42 C59.45,58.9566693 59.3650009,59.4449978 59.195,59.885 C59.0249992,60.3250022 58.7850016,60.7016651 58.475,61.015 C58.1649985,61.3283349 57.7933355,61.5708325 57.36,61.7425 C56.9266645,61.9141675 56.4466693,62 55.92,62 L53.24,62 L53.24,54.835 L55.92,54.835 C56.4466693,54.835 56.9266645,54.9208325 57.36,55.0925 C57.7933355,55.2641675 58.1649985,55.5074984 58.475,55.8225 C58.7850016,56.1375016 59.0249992,56.5149978 59.195,56.955 C59.3650009,57.3950022 59.45,57.8833306 59.45,58.42 Z M58.455,58.42 C58.455,57.9799978 58.3950006,57.5866684 58.275,57.24 C58.1549994,56.8933316 57.9850011,56.6000012 57.765,56.36 C57.5449989,56.12 57.2783349,55.9366673 56.965,55.81 C56.6516651,55.6833327 56.3033353,55.62 55.92,55.62 L54.215,55.62 L54.215,61.215 L55.92,61.215 C56.3033353,61.215 56.6516651,61.1516673 56.965,61.025 C57.2783349,60.8983327 57.5449989,60.7158345 57.765,60.4775 C57.9850011,60.2391655 58.1549994,59.9466684 58.275,59.6 C58.3950006,59.2533316 58.455,58.8600022 58.455,58.42 Z M66.185,54.835 L66.185,55.625 L62.745,55.625 L62.745,58.005 L65.53,58.005 L65.53,58.765 L62.745,58.765 L62.745,61.21 L66.185,61.21 L66.185,62 L61.77,62 L61.77,54.835 L66.185,54.835 Z M70.245,58.32 L67.88,54.835 L68.845,54.835 C68.9150004,54.835 68.9666665,54.8466666 69,54.87 C69.0333335,54.8933335 69.0633332,54.9266664 69.09,54.97 L70.96,57.84 C70.9833335,57.7699997 71.0183331,57.6933338 71.065,57.61 L72.83,54.99 C72.8600002,54.9433331 72.8924998,54.9058335 72.9275,54.8775 C72.9625002,54.8491665 73.0049997,54.835 73.055,54.835 L73.98,54.835 L71.605,58.275 L74.06,62 L73.1,62 C73.0266663,62 72.9691669,61.9808335 72.9275,61.9425 C72.8858331,61.9041665 72.8516668,61.8616669 72.825,61.815 L70.905,58.81 C70.8816666,58.8800004 70.8516669,58.9466664 70.815,59.01 L68.945,61.815 C68.9149999,61.8616669 68.8808335,61.9041665 68.8425,61.9425 C68.8041665,61.9808335 68.7500004,62 68.68,62 L67.78,62 L70.245,58.32 Z" id="CH-INDEX" fill="#F5F1E5" fill-rule="nonzero"></path>
            </g>
        </g>
    </g>
</svg>