<?xml version="1.0" encoding="UTF-8"?>
<svg width="94px" height="72px" viewBox="0 0 94 72" version="1.1" xmlns="http://www.w3.org/2000/svg" xmlns:xlink="http://www.w3.org/1999/xlink">
    <!-- Generator: Sketch 56.3 (81716) - https://sketch.com -->
    <title>Group</title>
    <desc>Created with Sketch.</desc>
    <defs>
        <polygon id="path-1" points="0.955353643 0.7541 4.54817096 0.7541 4.54817096 13 0.955353643 13"></polygon>
        <polygon id="path-3" points="0.477753643 0.7541 4.06984297 0.7541 4.06984297 13 0.477753643 13"></polygon>
        <polygon id="path-5" points="0.000253642811 0.7541 3.59309346 0.7541 3.59309346 13 0.000253642811 13"></polygon>
    </defs>
    <g id="Page-1" stroke="none" stroke-width="1" fill="none" fill-rule="evenodd">
        <g id="CH_Startseite-" transform="translate(-618.000000, -1943.000000)">
            <g id="Hideaways-zur-Kooperation" transform="translate(240.000000, 1668.000000)">
                <g id="Hausdarstellung-M" transform="translate(0.000000, 75.000000)">
                    <g id="CH-Index" transform="translate(378.000000, 200.000000)">
                        <g id="Group">
                            <rect id="Rectangle-Copy-5" fill="#5EA9B5" x="0" y="0" width="94" height="72"></rect>
                            <g id="Group-24" transform="translate(32.000000, 12.000000)">
                                <path d="M29.388,14.679 L27.814,14.679 C27.751,14.679 27.701,14.628 27.701,14.566 L27.701,6.972 C27.701,6.943 27.689,6.914 27.667,6.892 L23.354,2.579 C23.31,2.535 23.238,2.535 23.194,2.579 L18.881,6.892 C18.86,6.913 18.848,6.942 18.848,6.972 L18.848,14.566 C18.848,14.628 18.797,14.679 18.735,14.679 L17.16,14.679 C17.098,14.679 17.047,14.628 17.047,14.566 L17.047,6.227 C17.047,6.197 17.059,6.168 17.08,6.147 L23.194,0.033 C23.238,-0.011 23.31,-0.011 23.354,0.033 L29.468,6.146 C29.49,6.168 29.501,6.197 29.501,6.226 L29.501,14.566 C29.501,14.628 29.45,14.679 29.388,14.679" id="Fill-1" fill="#F5F1E5"></path>
                                <path d="M29.388,22.2288 L17.16,22.2288 C17.098,22.2288 17.047,22.1788 17.047,22.1158 L17.047,20.5428 C17.047,20.4798 17.098,20.4288 17.16,20.4288 L29.388,20.4288 C29.45,20.4288 29.501,20.4798 29.501,20.5428 L29.501,22.1158 C29.501,22.1788 29.45,22.2288 29.388,22.2288" id="Fill-3" fill="#F5F1E5"></path>
                                <path d="M29.388,26.305 L17.16,26.305 C17.098,26.305 17.047,26.254 17.047,26.192 L17.047,24.618 C17.047,24.556 17.098,24.505 17.16,24.505 L29.388,24.505 C29.45,24.505 29.501,24.556 29.501,24.618 L29.501,26.192 C29.501,26.254 29.45,26.305 29.388,26.305" id="Fill-5" fill="#F5F1E5"></path>
                                <path d="M29.388,30.3806 L17.16,30.3806 C17.098,30.3806 17.047,30.3296 17.047,30.2676 L17.047,28.6946 C17.047,28.6316 17.098,28.5816 17.16,28.5816 L29.388,28.5816 C29.45,28.5816 29.501,28.6316 29.501,28.6946 L29.501,30.2676 C29.501,30.3296 29.45,30.3806 29.388,30.3806" id="Fill-7" fill="#F5F1E5"></path>
                                <g id="Group-11" transform="translate(8.000000, 18.528000)">
                                    <mask id="mask-2" fill="white">
                                        <use xlink:href="#path-1"></use>
                                    </mask>
                                    <g id="Clip-10"></g>
                                    <path d="M3.5365,13.0001 C3.6405,13.0001 3.7015,12.8771 3.6395,12.7901 C3.1655,12.1351 2.7665,11.4041 2.6835,10.1241 C2.5825,8.5611 3.0525,7.7711 3.5505,6.9361 C4.0905,6.0271 4.6495,5.0871 4.5325,3.2771 C4.4615,2.1871 4.1865,1.4331 3.8375,0.8191 C3.8145,0.7781 3.7715,0.7541 3.7265,0.7541 L2.1735,0.7541 C2.0725,0.7541 2.0125,0.8711 2.0675,0.9581 C2.4475,1.5451 2.7485,2.2361 2.8185,3.3281 C2.9205,4.8911 2.4505,5.6801 1.9535,6.5161 C1.4125,7.4251 0.8525,8.3651 0.9715,10.1751 C1.0545,11.4541 1.4175,12.2711 1.8555,12.9421 C1.8795,12.9791 1.9195,13.0001 1.9615,13.0001 L3.5365,13.0001 Z" id="Fill-9" fill="#F5F1E5" mask="url(#mask-2)"></path>
                                </g>
                                <g id="Group-14" transform="translate(4.000000, 18.528000)">
                                    <mask id="mask-4" fill="white">
                                        <use xlink:href="#path-3"></use>
                                    </mask>
                                    <g id="Clip-13"></g>
                                    <path d="M3.0589,13.0001 C3.1629,13.0001 3.2229,12.8771 3.1609,12.7901 C2.6879,12.1351 2.2889,11.4041 2.2059,10.1241 C2.1049,8.5611 2.5749,7.7711 3.0729,6.9361 C3.6139,6.0271 4.1719,5.0871 4.0539,3.2771 C3.9839,2.1871 3.7089,1.4331 3.3599,0.8191 C3.3359,0.7781 3.2939,0.7541 3.2489,0.7541 L1.6969,0.7541 C1.5949,0.7541 1.5339,0.8711 1.5899,0.9581 C1.9709,1.5451 2.2709,2.2361 2.3409,3.3281 C2.4429,4.8911 1.9729,5.6801 1.4759,6.5161 C0.9349,7.4251 0.3749,8.3651 0.4939,10.1751 C0.5769,11.4541 0.9399,12.2711 1.3769,12.9421 C1.4019,12.9791 1.4419,13.0001 1.4839,13.0001 L3.0589,13.0001 Z" id="Fill-12" fill="#F5F1E5" mask="url(#mask-4)"></path>
                                </g>
                                <g id="Group-17" transform="translate(0.000000, 18.528000)">
                                    <mask id="mask-6" fill="white">
                                        <use xlink:href="#path-5"></use>
                                    </mask>
                                    <g id="Clip-16"></g>
                                    <path d="M2.5814,13.0001 C2.6854,13.0001 2.7464,12.8771 2.6844,12.7901 C2.2104,12.1351 1.8124,11.4041 1.7284,10.1241 C1.6274,8.5611 2.0974,7.7711 2.5954,6.9361 C3.1364,6.0271 3.6944,5.0871 3.5774,3.2771 C3.5064,2.1871 3.2324,1.4331 2.8824,0.8191 C2.8594,0.7781 2.8174,0.7541 2.7714,0.7541 L1.2194,0.7541 C1.1174,0.7541 1.0574,0.8711 1.1134,0.9581 C1.4934,1.5451 1.7934,2.2361 1.8634,3.3281 C1.9664,4.8911 1.4954,5.6801 0.9984,6.5161 C0.4574,7.4251 -0.1026,8.3651 0.0164,10.1751 C0.0994,11.4541 0.4634,12.2711 0.9004,12.9421 C0.9244,12.9791 0.9644,13.0001 1.0064,13.0001 L2.5814,13.0001 Z" id="Fill-15" fill="#F5F1E5" mask="url(#mask-6)"></path>
                                </g>
                                <path d="M12.3968,3.1429 C12.3968,3.0389 12.2738,2.9779 12.1868,3.0399 C11.5318,3.5139 10.8008,3.9119 9.5208,3.9959 C7.9588,4.0969 7.1678,3.6269 6.3328,3.1289 C5.4228,2.5889 4.4838,2.0299 2.6738,2.1469 C1.5838,2.2179 0.8298,2.4919 0.2148,2.8419 C0.1748,2.8649 0.1508,2.9069 0.1508,2.9529 L0.1508,4.5059 C0.1508,4.6069 0.2678,4.6679 0.3548,4.6109 C0.9418,4.2309 1.6328,3.9309 2.7248,3.8599 C4.2878,3.7589 5.0768,4.2279 5.9138,4.7259 C6.8218,5.2669 7.7608,5.8259 9.5718,5.7079 C10.8518,5.6249 11.6678,5.2619 12.3388,4.8239 C12.3758,4.7999 12.3968,4.7609 12.3968,4.7179 L12.3968,3.1429 Z" id="Fill-18" fill="#F5F1E5"></path>
                                <path d="M12.3968,7.6204 C12.3968,7.5164 12.2738,7.4554 12.1868,7.5184 C11.5318,7.9914 10.8008,8.3894 9.5208,8.4734 C7.9588,8.5744 7.1678,8.1044 6.3328,7.6064 C5.4228,7.0664 4.4838,6.5064 2.6738,6.6244 C1.5838,6.6954 0.8298,6.9694 0.2148,7.3194 C0.1748,7.3424 0.1508,7.3844 0.1508,7.4294 L0.1508,8.9834 C0.1508,9.0844 0.2678,9.1454 0.3548,9.0884 C0.9418,8.7084 1.6328,8.4084 2.7248,8.3374 C4.2878,8.2364 5.0768,8.7064 5.9138,9.2034 C6.8218,9.7444 7.7608,10.3034 9.5718,10.1854 C10.8518,10.1024 11.6678,9.7394 12.3388,9.3014 C12.3758,9.2774 12.3968,9.2374 12.3968,9.1954 L12.3968,7.6204 Z" id="Fill-20" fill="#F5F1E5"></path>
                                <path d="M12.3968,12.0974 C12.3968,11.9934 12.2738,11.9324 12.1868,11.9954 C11.5318,12.4684 10.8008,12.8674 9.5208,12.9504 C7.9588,13.0514 7.1678,12.5814 6.3328,12.0844 C5.4228,11.5434 4.4838,10.9844 2.6738,11.1014 C1.5838,11.1724 0.8298,11.4474 0.2148,11.7964 C0.1748,11.8194 0.1508,11.8624 0.1508,11.9074 L0.1508,13.4604 C0.1508,13.5614 0.2678,13.6224 0.3548,13.5654 C0.9418,13.1854 1.6328,12.8864 2.7248,12.8154 C4.2878,12.7134 5.0768,13.1834 5.9138,13.6804 C6.8218,14.2224 7.7608,14.7814 9.5718,14.6634 C10.8518,14.5794 11.6678,14.2164 12.3388,13.7784 C12.3758,13.7554 12.3968,13.7154 12.3968,13.6724 L12.3968,12.0974 Z" id="Fill-22" fill="#F5F1E5"></path>
                            </g>
                            <path d="M24.78,60.52 C24.8333336,60.52 24.8816665,60.5416665 24.925,60.585 L25.305,61 C25.0116652,61.3400017 24.6558354,61.6049991 24.2375,61.795 C23.8191646,61.9850009 23.315003,62.08 22.725,62.08 C22.2083308,62.08 21.7400021,61.9908342 21.32,61.8125 C20.8999979,61.6341658 20.5416681,61.3841683 20.245,61.0625 C19.9483319,60.7408317 19.7183342,60.3550022 19.555,59.905 C19.3916658,59.4549978 19.31,58.9600027 19.31,58.42 C19.31,57.8799973 19.3974991,57.3850022 19.5725,56.935 C19.7475009,56.4849977 19.9933317,56.098335 20.31,55.775 C20.6266682,55.4516651 21.0058311,55.2008342 21.4475,55.0225 C21.8891689,54.8441658 22.376664,54.755 22.91,54.755 C23.4366693,54.755 23.8908314,54.8366659 24.2725,55 C24.6541686,55.1633341 24.9933318,55.3849986 25.29,55.665 L24.975,56.11 C24.9516665,56.1433335 24.9250001,56.1708332 24.895,56.1925 C24.8649999,56.2141668 24.821667,56.225 24.765,56.225 C24.7216665,56.225 24.6758336,56.2091668 24.6275,56.1775 C24.5791664,56.1458332 24.521667,56.1066669 24.455,56.06 C24.388333,56.0133331 24.31,55.9633336 24.22,55.91 C24.1299996,55.8566664 24.023334,55.8066669 23.9,55.76 C23.776666,55.7133331 23.6333341,55.6741668 23.47,55.6425 C23.3066659,55.6108332 23.1183344,55.595 22.905,55.595 C22.5216647,55.595 22.1708349,55.6608327 21.8525,55.7925 C21.5341651,55.9241673 21.2600012,56.1116654 21.03,56.355 C20.7999988,56.5983345 20.620834,56.8949983 20.4925,57.245 C20.364166,57.5950018 20.3,57.9866645 20.3,58.42 C20.3,58.8666689 20.364166,59.2649982 20.4925,59.615 C20.620834,59.9650017 20.7958322,60.2608321 21.0175,60.5025 C21.2391678,60.7441679 21.5016652,60.9283327 21.805,61.055 C22.1083348,61.1816673 22.4349982,61.245 22.785,61.245 C22.9983344,61.245 23.1899991,61.2325001 23.36,61.2075 C23.5300009,61.1824999 23.6874993,61.1433336 23.8325,61.09 C23.9775007,61.0366664 24.1124994,60.9691671 24.2375,60.8875 C24.3625006,60.8058329 24.4883327,60.7083339 24.615,60.595 C24.671667,60.5449998 24.7266664,60.52 24.78,60.52 Z M33.39,62 L32.415,62 L32.415,58.74 L28.555,58.74 L28.555,62 L27.58,62 L27.58,54.835 L28.555,54.835 L28.555,58.03 L32.415,58.03 L32.415,54.835 L33.39,54.835 L33.39,62 Z M35.77,58.625 L38.24,58.625 L38.24,59.38 L35.77,59.38 L35.77,58.625 Z M41.76,62 L40.79,62 L40.79,54.835 L41.76,54.835 L41.76,62 Z M45.18,54.835 C45.2666671,54.835 45.3308331,54.8458332 45.3725,54.8675 C45.4141669,54.8891668 45.4616664,54.933333 45.515,55 L49.665,60.4 C49.655,60.3133329 49.6483334,60.2291671 49.645,60.1475 C49.6416667,60.0658329 49.64,59.9866671 49.64,59.91 L49.64,54.835 L50.49,54.835 L50.49,62 L50,62 C49.923333,62 49.8591669,61.9866668 49.8075,61.96 C49.7558331,61.9333332 49.7050003,61.8883336 49.655,61.825 L45.51,56.43 C45.5166667,56.5133338 45.5216667,56.5949996 45.525,56.675 C45.5283334,56.7550004 45.53,56.828333 45.53,56.895 L45.53,62 L44.68,62 L44.68,54.835 L45.18,54.835 Z M59.45,58.42 C59.45,58.9566693 59.3650009,59.4449978 59.195,59.885 C59.0249992,60.3250022 58.7850016,60.7016651 58.475,61.015 C58.1649985,61.3283349 57.7933355,61.5708325 57.36,61.7425 C56.9266645,61.9141675 56.4466693,62 55.92,62 L53.24,62 L53.24,54.835 L55.92,54.835 C56.4466693,54.835 56.9266645,54.9208325 57.36,55.0925 C57.7933355,55.2641675 58.1649985,55.5074984 58.475,55.8225 C58.7850016,56.1375016 59.0249992,56.5149978 59.195,56.955 C59.3650009,57.3950022 59.45,57.8833306 59.45,58.42 Z M58.455,58.42 C58.455,57.9799978 58.3950006,57.5866684 58.275,57.24 C58.1549994,56.8933316 57.9850011,56.6000012 57.765,56.36 C57.5449989,56.12 57.2783349,55.9366673 56.965,55.81 C56.6516651,55.6833327 56.3033353,55.62 55.92,55.62 L54.215,55.62 L54.215,61.215 L55.92,61.215 C56.3033353,61.215 56.6516651,61.1516673 56.965,61.025 C57.2783349,60.8983327 57.5449989,60.7158345 57.765,60.4775 C57.9850011,60.2391655 58.1549994,59.9466684 58.275,59.6 C58.3950006,59.2533316 58.455,58.8600022 58.455,58.42 Z M66.185,54.835 L66.185,55.625 L62.745,55.625 L62.745,58.005 L65.53,58.005 L65.53,58.765 L62.745,58.765 L62.745,61.21 L66.185,61.21 L66.185,62 L61.77,62 L61.77,54.835 L66.185,54.835 Z M70.245,58.32 L67.88,54.835 L68.845,54.835 C68.9150004,54.835 68.9666665,54.8466666 69,54.87 C69.0333335,54.8933335 69.0633332,54.9266664 69.09,54.97 L70.96,57.84 C70.9833335,57.7699997 71.0183331,57.6933338 71.065,57.61 L72.83,54.99 C72.8600002,54.9433331 72.8924998,54.9058335 72.9275,54.8775 C72.9625002,54.8491665 73.0049997,54.835 73.055,54.835 L73.98,54.835 L71.605,58.275 L74.06,62 L73.1,62 C73.0266663,62 72.9691669,61.9808335 72.9275,61.9425 C72.8858331,61.9041665 72.8516668,61.8616669 72.825,61.815 L70.905,58.81 C70.8816666,58.8800004 70.8516669,58.9466664 70.815,59.01 L68.945,61.815 C68.9149999,61.8616669 68.8808335,61.9041665 68.8425,61.9425 C68.8041665,61.9808335 68.7500004,62 68.68,62 L67.78,62 L70.245,58.32 Z" id="CH-INDEX" fill="#F5F1E5" fill-rule="nonzero"></path>
                        </g>
                    </g>
                </g>
            </g>
        </g>
    </g>
</svg>