<?xml version="1.0" encoding="UTF-8"?>
<svg width="182px" height="39px" viewBox="0 0 182 39" version="1.1" xmlns="http://www.w3.org/2000/svg" xmlns:xlink="http://www.w3.org/1999/xlink">
    <!-- Generator: Sketch 56.3 (81716) - https://sketch.com -->
    <title>Logo_CH_Petrol</title>
    <desc>Created with Sketch.</desc>
    <g id="Page-1" stroke="none" stroke-width="1" fill="none" fill-rule="evenodd">
        <g id="CH_Startseite-" transform="translate(-240.000000, -8502.000000)" fill="#F5F1E5">
            <g id="Logo_CH_Petrol" transform="translate(240.000000, 8502.000000)">
                <path d="M98.9364863,9 L98.0512285,9 C98.0163803,9 97.9877148,8.96873084 97.9877148,8.93010423 L97.9877148,4.27467811 C97.9877148,4.25628449 97.98097,4.23850399 97.9691665,4.22562845 L95.5444034,1.5812385 C95.5196724,1.55426119 95.4792035,1.55426119 95.4544725,1.5812385 L93.0308335,4.22562845 C93.018468,4.23850399 93.0122852,4.25628449 93.0122852,4.27467811 L93.0122852,8.93010423 C93.0122852,8.96873084 92.9836197,9 92.9482094,9 L92.0635137,9 C92.0286655,9 92,8.96873084 92,8.93010423 L92,3.81729001 C92,3.7995095 92.0067448,3.781729 92.0185483,3.76824034 L95.4544725,0.0202329859 C95.4792035,-0.00674432863 95.5196724,-0.00674432863 95.5444034,0.0202329859 L98.9814517,3.76824034 C98.9932552,3.78111588 99,3.79889638 99,3.81729001 L99,8.93010423 C99,8.96873084 98.9713345,9 98.9364863,9" id="Fill-1"></path>
                <path d="M98.9364863,14 L92.0635137,14 C92.0286655,14 92,13.9722068 92,13.9371873 L92,13.0628127 C92,13.0277932 92.0286655,13 92.0635137,13 L98.9364863,13 C98.9713345,13 99,13.0277932 99,13.0628127 L99,13.9371873 C99,13.9722068 98.9713345,14 98.9364863,14" id="Fill-3"></path>
                <path d="M98.9364863,16 L92.0635137,16 C92.0286655,16 92,15.9716667 92,15.9366667 L92,15.0627778 C92,15.0283333 92.0286655,15 92.0635137,15 L98.9364863,15 C98.9713345,15 99,15.0283333 99,15.0627778 L99,15.9366667 C99,15.9716667 98.9713345,16 98.9364863,16" id="Fill-4"></path>
                <path d="M98.9364863,19 L92.0635137,19 C92.0286655,19 92,18.9716509 92,18.9371873 L92,18.0628127 C92,18.0283491 92.0286655,18 92.0635137,18 L98.9364863,18 C98.9713345,18 99,18.0283491 99,18.0628127 L99,18.9371873 C99,18.9716509 98.9713345,19 98.9364863,19" id="Fill-5"></path>
                <path d="M88.4368014,19 C88.495255,19 88.5286571,18.9296913 88.4941416,18.8799608 C88.2302652,18.5049812 88.008698,18.0877021 87.9624918,17.355463 C87.9057083,16.4626 88.1673579,16.011024 88.4445952,15.5331537 C88.7452139,15.0141271 89.05641,14.4768088 88.991276,13.4421852 C88.9517502,12.8191246 88.799214,12.3881267 88.6043685,12.037155 C88.5915644,12.0137188 88.5681829,12 88.5425746,12 L87.6780174,12 C87.6217906,12 87.5878318,12.066879 87.6195638,12.1166095 C87.8311103,12.4521476 87.9981207,12.8471338 88.0376465,13.4713376 C88.0938733,14.3642006 87.8327804,14.8157766 87.5555431,15.2936469 C87.2543676,15.8126735 86.9431716,16.3499918 87.0088623,17.3846154 C87.0550686,18.1162829 87.2571512,18.5827209 87.5009864,18.9668463 C87.5143472,18.9874245 87.5360585,19 87.5599967,19 L88.4368014,19" id="Fill-6"></path>
                <path d="M85.4372586,19 C85.4951515,19 85.5285513,18.9296913 85.4940382,18.8799608 C85.2301799,18.5049812 85.0086281,18.0877021 84.962425,17.355463 C84.9056454,16.4626 85.1678337,16.011024 85.4444952,15.5331537 C85.7456499,15.0141271 86.0568245,14.4768088 85.9911383,13.4421852 C85.9516152,12.8191246 85.7990895,12.3881267 85.6042575,12.037155 C85.5914542,12.0137188 85.5680744,12 85.5430246,12 L84.6785269,12 C84.6223039,12 84.5883475,12.066879 84.6195206,12.1166095 C84.8310526,12.4521476 84.9980515,12.8471338 85.0375745,13.4713376 C85.0943542,14.3642006 84.8327226,14.8157766 84.556061,15.2936469 C84.2543497,15.8126735 83.9431751,16.3499918 84.0088613,17.3846154 C84.0550643,18.1162829 84.2576897,18.5827209 84.5009514,18.9668463 C84.5143113,18.9874245 84.5365778,19 84.5599577,19 L85.4372586,19" id="Fill-7"></path>
                <path d="M82.436702,19 C82.494595,19 82.5285514,18.9296913 82.4940383,18.8799608 C82.2301801,18.5049812 82.0086283,18.0877021 81.9618686,17.355463 C81.9056456,16.4626 82.1672772,16.011024 82.4444953,15.5331537 C82.7456499,15.0141271 83.0568245,14.4768088 82.9911383,13.4421852 C82.9516152,12.8191246 82.7990896,12.3881267 82.6042576,12.037155 C82.5914543,12.0137188 82.5680745,12 82.5430246,12 L81.6785272,12 C81.6217476,12 81.5883478,12.066879 81.6195209,12.1166095 C81.8310528,12.4521476 81.9980517,12.8471338 82.0375747,13.4713376 C82.0937977,14.3642006 81.8327228,14.8157766 81.5555047,15.2936469 C81.2543501,15.8126735 80.9431755,16.3499918 81.0088617,17.3846154 C81.0550647,18.1162829 81.2571334,18.5827209 81.5009517,18.9668463 C81.5143116,18.9874245 81.5365781,19 81.559958,19 L82.436702,19" id="Fill-8"></path>
                <path d="M89,2.5630416 C89,2.50516075 88.9291197,2.47176796 88.8799608,2.50627385 C88.5055528,2.77007692 88.0877021,2.99158246 87.355463,3.03777583 C86.4626,3.09454358 86.011024,2.83241014 85.5331537,2.55580649 C85.0135554,2.25471479 84.4768088,1.94360525 83.4421852,2.0087212 C82.8191246,2.04879256 82.3881267,2.20128632 82.0365834,2.39552108 C82.0137188,2.40832165 82,2.43225315 82,2.45729775 L82,3.32161459 C82,3.37782579 82.066879,3.41177513 82.1166095,3.38060852 C82.451576,3.16912082 82.8471338,3.00215685 83.4713376,2.96264204 C84.3642006,2.90587429 84.8157766,3.16745118 85.2936469,3.44461138 C85.8132451,3.74570308 86.3499918,4.05681262 87.3846154,3.99114012 C88.1162829,3.94494676 88.5832925,3.7423638 88.9668463,3.4985964 C88.9874245,3.48579583 89,3.46353397 89,3.44015901 L89,2.5630416" id="Fill-9"></path>
                <path d="M89,4.56328886 C89,4.50539556 88.9291197,4.4714389 88.8799608,4.50650889 C88.5055528,4.7698121 88.0877021,4.99136534 87.355463,5.03812531 C86.4626,5.09434862 86.011024,4.83271541 85.5331537,4.55549553 C85.0135554,4.25489567 84.4768088,3.94316248 83.4421852,4.00884911 C82.8191246,4.04837243 82.3881267,4.20089903 82.0365834,4.39573227 C82.0137188,4.4085356 82,4.43191559 82,4.45696558 L82,5.32202519 C82,5.37824849 82.066879,5.41220515 82.1166095,5.38047516 C82.451576,5.16894192 82.8471338,5.001942 83.4713376,4.96241868 C84.3642006,4.90619537 84.8157766,5.16782859 85.2936469,5.4444918 C85.8132451,5.74564833 86.3499918,6.05682485 87.3846154,5.99113822 C88.1162829,5.9449349 88.5832925,5.742865 88.9668463,5.49904511 C88.9874245,5.48568511 89,5.46341846 89,5.44003847 L89,4.56328886" id="Fill-10"></path>
                <path d="M89,7.5630416 C89,7.50516075 88.9291197,7.47121141 88.8799608,7.50627385 C88.5055528,7.76952038 88.0877021,7.99158246 87.355463,8.03777583 C86.4626,8.09398704 86.011024,7.83241014 85.5331537,7.55580649 C85.0135554,7.25471479 84.4768088,6.94360525 83.4421852,7.0087212 C82.8191246,7.04823601 82.3881267,7.20128632 82.0365834,7.39552108 C82.0137188,7.40832165 82,7.43225315 82,7.45729775 L82,8.32161459 C82,8.37782579 82.066879,8.41177513 82.1166095,8.38005198 C82.451576,8.16856428 82.8471338,8.00215685 83.4713376,7.96264204 C84.3642006,7.90587429 84.8157766,8.16745118 85.2936469,8.44461138 C85.8132451,8.74570308 86.3499918,9.05681262 87.3846154,8.99114012 C88.1162829,8.94439021 88.5832925,8.7423638 88.9668463,8.4985964 C88.9874245,8.48579583 89,8.46353397 89,8.43960246 L89,7.5630416" id="Fill-11"></path>
                <g id="Group-15" transform="translate(0.000000, 28.000000)">
                    <polyline id="Fill-12" points="69.3468696 10.8178889 61.8982609 2.85144444 61.8988696 3.44422222 61.8988696 10.7848889 60.7703478 10.7848889 60.7703478 0.4235 61.1142609 0.4235 68.4715652 8.29827778 68.4715652 0.432666667 69.5970435 0.432666667 69.5970435 10.8178889 69.3468696 10.8178889"></polyline>
                    <path d="M5.33643478,11 C3.86704348,11 2.59486957,10.4781111 1.55643478,9.44777778 C0.523478261,8.41194444 0,7.14327778 0,5.67661111 C0,4.36211111 0.43826087,3.1735 1.30565217,2.14194444 C2.37026087,0.881222222 3.76843478,0.241388889 5.46182609,0.241388889 C6.342,0.241388889 7.20634783,0.474833333 8.03478261,0.935611111 L8.03478261,2.25683333 C7.17104348,1.63227778 6.27017391,1.31633333 5.34982609,1.31633333 C4.18052174,1.31633333 3.18347826,1.74411111 2.38243478,2.58744444 C1.5813913,3.42038889 1.17417391,4.45561111 1.17417391,5.66255556 C1.17417391,6.85666667 1.5813913,7.87844444 2.38486957,8.69916667 C3.18956522,9.52172222 4.18965217,9.93911111 5.35773913,9.93911111 C5.96095652,9.93911111 6.48443478,9.83766667 6.91417391,9.63722222 C7.14365217,9.54127778 7.39078261,9.40683333 7.63852174,9.24122222 C7.76695652,9.15627778 7.89843478,9.06277778 8.03478261,8.95888889 L8.03478261,10.3039444 C7.17713043,10.7659444 6.27078261,11 5.33643478,11" id="Fill-14"></path>
                </g>
                <path d="M112.17982,30.0313478 L112.17982,37.9686522 L113.162179,37.9686522 C113.924172,37.9686522 114.571031,37.8901352 115.084803,37.7354625 C115.610956,37.5654407 116.087589,37.2974202 116.507273,36.9361237 C117.370164,36.1840132 117.806561,35.1963516 117.806561,33.9997048 C117.806561,32.7942027 117.374497,31.8006376 116.523367,31.0455753 C115.756422,30.3719818 114.626741,30.0313478 113.162179,30.0313478 L112.17982,30.0313478 Z M111,39 L111,29 L113.062519,29 C114.134014,29 114.987001,29.1015408 115.597957,29.2993093 C116.252863,29.4929453 116.851439,29.8253144 117.381306,30.2875612 C118.456515,31.2226814 119,32.4718696 119,33.9997048 C119,35.5529252 118.447849,36.7731861 117.313216,37.729559 C116.748685,38.2042033 116.151965,38.5353917 115.54039,38.7189917 C114.956051,38.9055434 114.114825,39 113.033426,39 L111,39 L111,39 Z" id="Fill-16"></path>
                <polyline id="Fill-17" points="122 39 122 29 127 29 127 30.0313478 123.271516 30.0313478 123.059411 30.0319381 123.059411 37.9692426 123.271516 37.9686522 127 37.9686522 127 39 122 39"></polyline>
                <polygon id="Fill-18" points="122 34 126 34 126 33 122 33"></polygon>
                <polyline id="Fill-19" points="31 39 26.2191066 29 25.7815004 29 21 39 22.2108521 39 26 31.0750591 29.7891479 39 31 39"></polyline>
                <path d="M35.9669468,34.6195761 L36.3053221,34.5505048 C36.9114846,34.4141331 37.4067227,34.0971132 37.7759104,33.6088907 C38.1456583,33.1194876 38.3327731,32.5244111 38.3327731,31.8401913 C38.3327731,30.9546608 38.042577,30.2627664 37.4448179,29.7249542 C36.9042017,29.2444064 35.9955182,29 34.7439776,29 L32,29 L32.4560224,30.0313478 L35.0207283,30.0313478 C36.9070028,30.0313478 37.3030812,31.0260936 37.3030812,31.8602633 C37.3030812,32.742842 36.8985994,33.7936714 34.9753501,33.7989846 L34.9753501,34.8834642 L37.7014006,39 L39,39 L35.9669468,34.6195761" id="Fill-20"></path>
                <polyline id="Fill-21" points="139 39 134.219107 29 133.780893 29 129 39 130.210852 39 133.999393 31.0750591 137.789148 39 139 39"></polyline>
                <polyline id="Fill-22" points="166 39 161.219423 29 160.781184 29 156 39 157.210926 39 160.999697 31.0750591 164.789074 39 166 39"></polyline>
                <polyline id="Fill-23" points="50.646187 29 46.5 33.1633736 42.3531868 29 42 29 42 39 43.1603813 39 43.1603813 31.9153642 43.1597551 31.3438514 46.5 34.6944854 49.8396187 31.3438514 49.8389925 31.9153642 49.8389925 39 51 39 51 29 50.646187 29"></polyline>
                <polygon id="Fill-24" points="55 39 56 39 56 29 55 29"></polygon>
                <polygon id="Fill-25" points="105 39 106 39 106 29 105 29"></polygon>
                <polyline id="Fill-26" points="97.9987371 29 97.9987371 33.5763211 94.0007216 33.5763211 94.0007216 29 93 29 93 39 94.0007216 39 94.0007216 34.6043309 97.9987371 34.6043309 97.9987371 39 99 39 99 29 97.9987371 29"></polyline>
                <g id="Group-30" transform="translate(12.000000, 28.000000)">
                    <polyline id="Fill-27" points="5.91876923 0.427777778 5.91876923 5.03616667 1.37230769 5.03616667 1.37230769 0.427777778 0.234461538 0.427777778 0.234461538 10.813 1.37230769 10.813 1.37230769 6.10316667 5.91876923 6.10316667 5.91876923 10.813 7.05661538 10.813 7.05661538 0.427777778 5.91876923 0.427777778"></polyline>
                    <path d="M68.0793846,5.66927778 L68.0793846,6.73688889 L70.3544615,6.73688889 L70.3544615,8.99433333 C70.2344615,9.08294444 70.1175385,9.16666667 70.0036923,9.24122222 C69.7532308,9.40683333 69.5033846,9.54127778 69.2707692,9.63722222 C68.8369231,9.83766667 68.3076923,9.93911111 67.6978462,9.93911111 C66.5169231,9.93911111 65.5058462,9.52172222 64.6923077,8.69916667 C63.88,7.87844444 63.4683077,6.85666667 63.4683077,5.66255556 C63.4683077,4.45561111 63.88,3.42038889 64.6898462,2.58744444 C65.4996923,1.74411111 66.5076923,1.31633333 67.6898462,1.31633333 C68.6203077,1.31633333 69.5310769,1.63227778 70.4043077,2.25683333 L70.4043077,0.935611111 C69.5667692,0.474833333 68.6929231,0.241388889 67.8030769,0.241388889 C66.0910769,0.241388889 64.6775385,0.881222222 63.6012308,2.14194444 C62.7243077,3.1735 62.2812308,4.36211111 62.2812308,5.67661111 C62.2812308,7.14327778 62.8104615,8.41194444 63.8547692,9.44777778 C64.9046154,10.4781111 66.1907692,11 67.6763077,11 C68.4233846,11 69.152,10.8478333 69.8535385,10.5581667 C69.9144615,10.5331111 69.9723077,10.5019444 70.0326154,10.4756667 C70.1569231,10.4194444 70.2824615,10.3693333 70.4043077,10.3039444 L70.4043077,10.2966111 C70.7889231,10.0925 71.1489231,9.83583333 71.4898462,9.54127778 L71.4929231,9.54127778 L71.4929231,5.66927778 L68.0793846,5.66927778" id="Fill-29"></path>
                </g>
                <polyline id="Fill-31" points="172.640163 29 170.497318 32.6997461 168.360432 29 167 29 169.901422 34.0020662 169.901422 39 171.08666 39 171.08666 34.0020662 174 29 172.640163 29"></polyline>
                <path d="M178.976042,39 C178.162609,39 177.483114,38.7319097 176.956028,38.2033888 C176.465891,37.7029536 176.144905,36.9957059 176,36.1014333 L177.188107,35.8116405 C177.263735,36.3873963 177.384971,36.7888934 177.55701,37.0359195 C177.893005,37.5523124 178.390648,37.8159345 179.033773,37.8159345 C179.542384,37.8159345 179.973059,37.6231649 180.311363,37.2446469 C180.648513,36.8661289 180.819975,36.3816515 180.819975,35.8052574 C180.819975,35.5741891 180.790532,35.3584402 180.731069,35.162479 C180.672761,34.9652411 180.578081,34.7807695 180.45165,34.6141705 C180.328683,34.452678 180.16819,34.2994835 179.975945,34.1609702 C179.790628,34.0262868 179.566054,33.8960715 179.310305,33.7735159 L178.351968,33.3330819 C177.052439,32.7254105 176.419706,31.8707132 176.419706,30.7198398 C176.419706,29.9442929 176.68065,29.3136424 177.21755,28.7915047 C177.753295,28.2661754 178.431059,28 179.232368,28 C180.272684,28 181.075724,28.5240527 181.682479,29.6002437 L180.751852,30.20983 C180.539402,29.831312 180.335033,29.5830093 180.12951,29.4502408 C179.895699,29.2842802 179.587992,29.1981083 179.219667,29.1981083 C178.766477,29.1981083 178.383142,29.3442813 178.080054,29.6321592 C177.770038,29.9219521 177.613009,30.2928103 177.613009,30.734521 C177.613009,31.3460222 178.009045,31.8368827 178.791879,32.1924215 L179.780237,32.6392387 C180.553257,32.9852028 181.124796,33.4090408 181.477533,33.899263 C181.824497,34.3824639 182,34.985667 182,35.6916381 C182,36.6433587 181.71019,37.4399698 181.138651,38.0584924 C180.561339,38.6833981 179.833927,39 178.976042,39" id="Fill-32"></path>
                <polyline id="Fill-33" points="152.826072 29 150.423733 36.7894426 147.637476 30.9834857 146.971637 30.9834857 144.20692 36.7894426 142.173928 29 141 29 143.190107 39 144.352632 38.9917428 147.303606 32.8301386 150.259649 39 151.408869 39 154 29 152.826072 29"></polyline>
            </g>
        </g>
    </g>
</svg>