<?xml version="1.0" encoding="UTF-8"?>
<svg width="47px" height="78px" viewBox="0 0 47 78" version="1.1" xmlns="http://www.w3.org/2000/svg" xmlns:xlink="http://www.w3.org/1999/xlink">
    <!-- Generator: Sketch 60 (88103) - https://sketch.com -->
    <title>Signet_CH_Petrol_RGB</title>
    <desc>Created with Sketch.</desc>
    <defs>
        <polygon id="path-1" points="0.869 0.734 20.499 0.734 20.499 24.114 0.869 24.114"></polygon>
        <polygon id="path-3" points="0 0.415 12.7200963 0.415 12.7200963 19.92 0 19.92"></polygon>
        <polygon id="path-5" points="0.252 0.596 44.42 0.596 44.42 47.94 0.252 47.94"></polygon>
    </defs>
    <g id="Page-1" stroke="none" stroke-width="1" fill="none" fill-rule="evenodd">
        <g id="CH_Über-uns" transform="translate(-240.000000, -3206.000000)">
            <g id="Ausführung" transform="translate(240.000000, 2662.000000)">
                <g id="Signet_CH_Petrol_RGB" transform="translate(0.000000, 544.000000)">
                    <g id="Group-3" transform="translate(26.000000, 0.000000)">
                        <mask id="mask-2" fill="white">
                            <use xlink:href="#path-1"></use>
                        </mask>
                        <g id="Clip-2"></g>
                        <path d="M20.32,24.114 L17.84,24.114 C17.741,24.114 17.661,24.033 17.661,23.934 L17.661,11.84 C17.661,11.792 17.641,11.746 17.608,11.712 L10.809,4.842 C10.74,4.771 10.627,4.771 10.556,4.842 L3.759,11.711 C3.726,11.745 3.708,11.791 3.708,11.839 L3.708,23.934 C3.708,24.033 3.628,24.114 3.529,24.114 L1.048,24.114 C0.949,24.114 0.869,24.033 0.869,23.934 L0.869,10.652 C0.869,10.604 0.888,10.558 0.921,10.525 L10.557,0.787 C10.627,0.716 10.74,0.716 10.809,0.787 L20.447,10.524 C20.48,10.557 20.499,10.603 20.499,10.651 L20.499,23.934 C20.499,24.033 20.419,24.114 20.32,24.114" id="Fill-1" fill="#163233" mask="url(#mask-2)"></path>
                    </g>
                    <path d="M46.32,36.14 L27.048,36.14 C26.949,36.14 26.869,36.059 26.869,35.959 L26.869,33.453 C26.869,33.354 26.949,33.273 27.048,33.273 L46.32,33.273 C46.419,33.273 46.499,33.354 46.499,33.453 L46.499,35.959 C46.499,36.059 46.419,36.14 46.32,36.14" id="Fill-4" fill="#163233"></path>
                    <path d="M46.32,42.632 L27.048,42.632 C26.949,42.632 26.869,42.551 26.869,42.451 L26.869,39.946 C26.869,39.846 26.949,39.765 27.048,39.765 L46.32,39.765 C46.419,39.765 46.499,39.846 46.499,39.946 L46.499,42.451 C46.499,42.551 46.419,42.632 46.32,42.632" id="Fill-5" fill="#163233"></path>
                    <path d="M46.32,49.124 L27.048,49.124 C26.949,49.124 26.869,49.043 26.869,48.944 L26.869,46.438 C26.869,46.338 26.949,46.257 27.048,46.257 L46.32,46.257 C46.419,46.257 46.499,46.338 46.499,46.438 L46.499,48.944 C46.499,49.043 46.419,49.124 46.32,49.124" id="Fill-6" fill="#163233"></path>
                    <path d="M18.183,77.92 C18.348,77.92 18.443,77.724 18.344,77.586 C17.599,76.542 16.971,75.379 16.84,73.339 C16.68,70.851 17.42,69.593 18.205,68.261 C19.057,66.814 19.938,65.317 19.753,62.434 C19.641,60.698 19.209,59.497 18.658,58.518 C18.622,58.453 18.555,58.415 18.483,58.415 L16.035,58.415 C15.876,58.415 15.78,58.602 15.869,58.74 C16.468,59.675 16.941,60.776 17.053,62.515 C17.212,65.003 16.472,66.261 15.688,67.593 C14.836,69.04 13.954,70.537 14.139,73.42 C14.271,75.459 14.844,76.759 15.534,77.828 C15.571,77.886 15.634,77.92 15.701,77.92 L18.183,77.92" id="Fill-7" fill="#163233"></path>
                    <g id="Group-11" transform="translate(0.000000, 58.000000)">
                        <mask id="mask-4" fill="white">
                            <use xlink:href="#path-3"></use>
                        </mask>
                        <g id="Clip-9"></g>
                        <path d="M11.126,19.92 C11.291,19.92 11.385,19.724 11.287,19.586 C10.541,18.542 9.914,17.379 9.782,15.339 C9.622,12.851 10.363,11.593 11.147,10.261 C12,8.814 12.881,7.317 12.695,4.434 C12.584,2.698 12.152,1.497 11.6,0.518 C11.564,0.453 11.498,0.415 11.426,0.415 L8.978,0.415 C8.818,0.415 8.722,0.602 8.812,0.74 C9.411,1.675 9.883,2.776 9.995,4.515 C10.155,7.003 9.415,8.261 8.63,9.593 C7.778,11.04 6.897,12.537 7.082,15.42 C7.213,17.459 7.787,18.759 8.476,19.828 C8.514,19.886 8.577,19.92 8.644,19.92 L11.126,19.92" id="Fill-8" fill="#163233" mask="url(#mask-4)"></path>
                        <path d="M4.069,19.92 C4.233,19.92 4.328,19.724 4.23,19.586 C3.484,18.542 2.857,17.379 2.725,15.339 C2.565,12.851 3.306,11.593 4.09,10.261 C4.942,8.814 5.824,7.317 5.638,4.434 C5.526,2.698 5.095,1.497 4.544,0.518 C4.507,0.453 4.441,0.415 4.369,0.415 L1.921,0.415 C1.761,0.415 1.666,0.602 1.754,0.74 C2.354,1.675 2.826,2.776 2.938,4.515 C3.098,7.003 2.358,8.261 1.573,9.593 C0.721,11.04 -0.161,12.537 0.025,15.42 C0.156,17.459 0.73,18.759 1.419,19.828 C1.457,19.886 1.519,19.92 1.586,19.92 L4.069,19.92" id="Fill-10" fill="#163233" mask="url(#mask-4)"></path>
                    </g>
                    <path d="M19.54,5.739 C19.54,5.573 19.345,5.477 19.209,5.577 C18.176,6.33 17.025,6.965 15.006,7.097 C12.544,7.259 11.299,6.511 9.981,5.718 C8.548,4.857 7.067,3.966 4.214,4.154 C2.497,4.266 1.308,4.703 0.339,5.26 C0.275,5.297 0.238,5.364 0.238,5.436 L0.238,7.91 C0.238,8.071 0.422,8.168 0.56,8.078 C1.484,7.473 2.574,6.995 4.295,6.882 C6.757,6.72 8.002,7.469 9.32,8.261 C10.752,9.123 12.233,10.013 15.086,9.826 C17.104,9.694 18.391,9.114 19.449,8.417 C19.507,8.379 19.54,8.316 19.54,8.248 L19.54,5.739" id="Fill-12" fill="#163233"></path>
                    <path d="M19.54,12.871 C19.54,12.705 19.345,12.609 19.209,12.709 C18.176,13.462 17.025,14.096 15.006,14.229 C12.544,14.391 11.299,13.642 9.981,12.85 C8.548,11.989 7.067,11.098 4.214,11.285 C2.497,11.398 1.308,11.835 0.339,12.392 C0.275,12.428 0.238,12.496 0.238,12.568 L0.238,15.042 C0.238,15.203 0.422,15.3 0.56,15.21 C1.484,14.605 2.574,14.127 4.295,14.014 C6.757,13.852 8.002,14.601 9.32,15.393 C10.752,16.255 12.233,17.145 15.086,16.958 C17.104,16.825 18.391,16.246 19.449,15.549 C19.507,15.511 19.54,15.447 19.54,15.38 L19.54,12.871" id="Fill-13" fill="#163233"></path>
                    <path d="M19.54,20.003 C19.54,19.837 19.345,19.74 19.209,19.84 C18.176,20.593 17.025,21.228 15.006,21.361 C12.544,21.522 11.299,20.774 9.981,19.981 C8.548,19.12 7.067,18.229 4.214,18.417 C2.497,18.53 1.308,18.966 0.339,19.523 C0.275,19.56 0.238,19.627 0.238,19.699 L0.238,22.173 C0.238,22.335 0.422,22.431 0.56,22.341 C1.484,21.736 2.574,21.258 4.295,21.145 C6.757,20.984 8.002,21.732 9.32,22.525 C10.752,23.386 12.233,24.277 15.086,24.089 C17.104,23.957 18.391,23.377 19.449,22.68 C19.507,22.642 19.54,22.579 19.54,22.511 L19.54,20.003" id="Fill-14" fill="#163233"></path>
                    <g id="Group-18" transform="translate(1.000000, 30.000000)">
                        <mask id="mask-6" fill="white">
                            <use xlink:href="#path-5"></use>
                        </mask>
                        <g id="Clip-16"></g>
                        <path d="M15.572,17.709 C15.421,17.821 15.231,17.957 15.038,18.084 C14.557,18.4 14.097,18.657 13.657,18.841 C12.849,19.222 11.859,19.414 10.715,19.414 C8.501,19.414 6.605,18.619 5.079,17.049 C3.555,15.484 2.783,13.532 2.783,11.251 C2.783,8.946 3.554,6.97 5.076,5.378 C6.594,3.77 8.485,2.954 10.7,2.954 C12.424,2.954 14.119,3.545 15.739,4.711 C15.758,4.724 15.89,4.75 15.89,4.632 C15.89,4.513 15.89,2.05 15.89,2.05 C15.89,1.981 15.851,1.916 15.791,1.883 C14.221,1.031 12.581,0.596 10.914,0.596 C7.609,0.596 4.879,1.853 2.799,4.333 C1.109,6.355 0.252,8.692 0.252,11.28 C0.252,14.162 1.274,16.656 3.292,18.694 C5.321,20.718 7.804,21.744 10.673,21.744 C12.42,21.744 14.121,21.314 15.794,20.373 C15.852,20.341 15.89,20.277 15.89,20.208 C15.89,20.208 15.89,17.958 15.89,17.825 C15.89,17.692 15.733,17.59 15.572,17.709" id="Fill-15" fill="#163233" mask="url(#mask-6)"></path>
                        <path d="M41.504,28.469 L41.504,36.989 L29.861,36.989 L29.861,28.469 C29.861,28.369 29.781,28.288 29.682,28.288 L27.124,28.288 C27.025,28.288 26.945,28.369 26.945,28.469 L26.945,47.82 C26.945,47.919 27.025,48 27.124,48 L29.682,48 C29.781,48 29.861,47.919 29.861,47.82 L29.861,39.772 L41.504,39.772 L41.504,47.82 C41.504,47.919 41.584,48 41.682,48 L44.241,48 C44.34,48 44.42,47.919 44.42,47.82 L44.42,28.469 C44.42,28.369 44.34,28.288 44.241,28.288 L41.682,28.288 C41.584,28.288 41.504,28.369 41.504,28.469" id="Fill-17" fill="#163233" mask="url(#mask-6)"></path>
                    </g>
                </g>
            </g>
        </g>
    </g>
</svg>